<?xml version="1.0" encoding="UTF-8" standalone="no"?>
<svg
   inkscape:version="1.1 (c68e22c387, 2021-05-23)"
   sodipodi:docname="12257.svg"
   id="svg36"
   version="1.1"
   viewBox="0 0 1.6962528 1.6962528"
   height="22"
   width="22"
   xmlns:inkscape="http://www.inkscape.org/namespaces/inkscape"
   xmlns:sodipodi="http://sodipodi.sourceforge.net/DTD/sodipodi-0.dtd"
   xmlns="http://www.w3.org/2000/svg"
   xmlns:svg="http://www.w3.org/2000/svg">
  <defs
     id="defs40">
    <filter
       style="color-interpolation-filters:sRGB;"
       inkscape:label="Greyscale"
       id="filter925"
       x="0"
       y="0"
       width="1"
       height="1">
      <feColorMatrix
         values="0.21 0.72 0.072 0 0 0.21 0.72 0.072 0 0 0.21 0.72 0.072 0 0 0 0 0 1 0 "
         id="feColorMatrix923" />
    </filter>
  </defs>
  <sodipodi:namedview
     id="namedview38"
     pagecolor="#ffffff"
     bordercolor="#666666"
     borderopacity="1.0"
     inkscape:pageshadow="2"
     inkscape:pageopacity="0.0"
     inkscape:pagecheckerboard="0"
     showgrid="false"
     inkscape:zoom="13.9008"
     inkscape:cx="16.797594"
     inkscape:cy="17.049379"
     inkscape:window-width="1276"
     inkscape:window-height="757"
     inkscape:window-x="0"
     inkscape:window-y="0"
     inkscape:window-maximized="1"
     inkscape:current-layer="svg36" />
  <g
     id="g905"
     transform="matrix(-0.02158038,0,0,0.02158096,3.4030051,-1.3081449)"
     style="filter:url(#filter925)">
    <path
       d="m 126.959,138.207 h 3.865 v -0.352 0.352 H 131 c 2.285,-1.23 3.691,-2.285 5.449,-5.449 h -0.176 l -0.176,-0.176 0.352,0.176 c 1.406,-2.988 1.23,-6.678 0.703,-8.963 v -0.176 l -4.922,-6.326 0.527,-8.789 2.988,-7.381 v -0.527 h -0.176 l -0.176,0.176 0.352,0.352 -0.352,-0.352 0.176,-0.176 -1.23,-0.703 -0.527,-0.176 v 0.527 l -3.164,8.611 H 131 130.648 l -0.176,10.369 -0.352,0.527 c -0.879,-1.055 -1.758,-1.23 -2.459,-2.283 -0.352,-0.352 -0.527,-0.703 -0.703,-1.055 V 99.541 l 1.404,-5.624 0.176,-0.176 h -0.35 0.174 l -0.701,-2.285 c 0.176,-3.164 0.701,-6.502 0.176,-9.666 -0.352,-1.582 -0.527,-2.636 -0.879,-3.867 v -1.582 l 0.879,-0.527 1.229,0.351 0.879,0.879 0.352,0.176 c 0.352,0.176 0.703,0.176 0.879,0.351 1.758,-0.175 1.582,-0.175 2.637,-1.406 0.879,-2.988 -2.812,-6.502 -5.449,-1.582 l -1.053,0.176 c -0.527,0.176 -0.879,-0.527 -1.758,-0.879 -0.527,-0.703 -1.406,-1.055 -2.285,-1.055 0.527,-0.176 0.879,-0.352 1.582,-0.527 v -2.812 c -1.23,-4.218 -2.461,-4.394 -4.922,-7.03 l 0.703,0.527 2.461,2.285 2.285,3.515 1.406,-0.176 v -1.582 l -2.988,-2.636 -4.043,-2.636 0.527,-0.176 1.055,0.176 c 1.23,0.878 2.637,1.757 4.043,2.46 3.514,1.406 7.029,1.757 8.611,5.624 0.703,3.515 1.23,7.206 2.285,10.369 2.283,2.812 2.635,4.394 3.514,7.732 4.219,15.466 3.164,28.121 1.582,43.41 1.582,4.746 4.746,5.449 7.031,7.031 l -21.441,0.176 z"
       fill-rule="evenodd"
       clip-rule="evenodd"
       id="path10"
       sodipodi:nodetypes="ccccccccccccccccccccccccccccccccccccccccccscccccccccccccccccccccccccc" />
    <path
       d="m 115.359,135.922 2.635,-2.285 -1.053,-2.988 c -0.527,-2.283 -0.527,-3.162 -0.352,-5.623 -0.527,-0.527 -1.406,-1.23 -1.934,-2.109 l 1.055,-0.703 c 0.352,-0.176 0.703,-0.703 0.879,-0.879 0.527,-0.352 1.23,-0.703 1.756,-0.703 l 0.176,0.176 v 0.176 h 0.176 l 0.352,0.176 0.176,-0.352 -0.176,0.352 0.703,0.176 c 2.812,1.934 2.637,3.516 2.285,7.381 v 0.176 h 0.176 c 1.934,2.988 2.988,4.395 2.637,7.207 -0.176,0 -0.703,-0.176 -0.879,-0.352 -0.352,-0.176 -0.527,-1.055 -0.879,-1.582 -0.527,-0.879 -0.527,-2.637 -0.879,-3.34 -0.176,-0.352 -0.879,-0.703 -0.703,-1.055 l 0.176,-1.055 -0.176,-1.229 -1.23,-0.352 v -0.703 c 0.352,-0.352 1.406,-0.879 1.406,-1.406 0.176,-1.055 -0.176,-2.637 -1.758,-2.637 -0.352,0 -1.406,0 -1.582,0.527 -0.176,0.176 -0.352,0.703 -0.176,1.055 0,0.352 0.527,0.703 0.352,0.703 -0.701,0 -1.229,0.176 -1.404,0.352 -0.176,0.352 -0.176,0.352 0,0 0,1.23 -0.176,2.461 -0.176,3.34 0.352,2.635 1.229,4.744 2.107,6.678 h 0.879 c 0.527,0.703 0.176,1.406 0.527,1.934 0,0.352 0.527,0.527 1.055,0.352 l 0.352,-0.527 c 0.176,0 1.406,-0.176 2.109,0 0.176,0 0.352,0.176 0.703,0.176 -0.352,0.352 -0.352,0.527 -0.352,0.703 l 0.527,0.176 -0.527,-0.176 -0.176,0.527 h 2.812 v 0.352 h -11.424 z m -16.521,2.461 h 8.789 v -0.352 0.352 h 0.174 l -0.174,0.176 z m 27.066,-34.623 1.055,-4.219 v 16.873 c -1.934,-3.867 -1.23,-8.086 -1.055,-12.654 z m -4.218,-8.085 c -0.176,-2.461 -2.461,-4.745 -4.744,-2.988 v 1.054 l -0.176,1.055 h -0.527 c -0.879,-1.933 -1.23,-1.933 -2.812,-3.339 l -1.406,-0.527 h -0.176 c -2.461,-0.879 -4.92,0 -6.502,1.582 -1.055,0.878 -1.934,2.109 -2.461,3.164 h -8.963 c 1.934,-6.503 5.975,-11.6 15.641,-10.545 2.109,0.527 3.34,1.054 5.273,1.757 -0.176,0 -0.176,0.176 -0.176,0.176 l -0.176,0.352 0.176,0.176 c 2.637,2.46 5.096,3.866 6.678,5.448 0.703,0.703 1.582,1.582 1.934,2.637 h -1.583 z"
       fill-rule="evenodd"
       clip-rule="evenodd"
       id="path12" />
    <path
       d="m 87.766,138.383 3.691,-1.582 1.406,-1.055 1.582,-2.461 c -1.23,-11.424 -1.934,-18.102 -2.285,-27.24 0.351,-3.164 0.703,-7.031 1.757,-10.37 h 8.963 c -0.527,1.231 -1.23,2.459 -1.406,3.514 h 0.352 -0.352 v 12.303 c -0.703,2.109 -1.406,5.273 -2.109,7.381 l -1.582,1.758 -0.877,-2.283 -0.176,-6.68 h -0.703 l -0.527,1.934 0.176,0.176 h 0.176 -0.703 0.527 L 95.5,113.602 h -0.352 v 0.176 l 0.527,7.557 h 0.351 -0.351 v 0.176 l 1.23,1.582 2.811,12.127 -1.406,2.637 0.527,0.176 -0.527,-0.176 -0.176,0.527 H 87.766 Z m 21.441,-1.406 v -0.352 h -0.528 0.527 v -2.285 l 0.176,2.461 -1.23,1.055 z m 13.182,-8.262 -0.176,0.176 z m -1.758,-18.102 0.703,-2.986 0.176,-2.109 -0.703,-1.406 -0.703,-0.176 -0.527,0.352 v 0.527 c -0.352,-0.527 -0.527,-0.879 -0.703,-1.23 l -0.176,0.176 h -0.176 l 0.352,-0.176 -1.932,-3.164 v -0.176 h -0.176 l -0.703,-0.352 0.352,-0.176 v -1.406 l 0.527,-0.877 0.879,-0.176 0.701,0.176 0.176,0.877 c 0.352,0.176 0.527,0.176 0.879,0.352 1.406,-0.176 1.23,-0.176 2.109,-1.404 0.176,-0.352 0.176,-0.88 0,-1.583 h 1.582 c 0.527,1.231 0.879,2.811 1.055,4.745 -0.352,2.988 -1.934,4.395 -2.461,6.68 z m 16.346,13.182 h 0.175 z m -39.37,-2.637 v 0.176 z m 1.934,-2.285 v 0.176 z m -2.987,-0.525 z m 28.999,-14.588 z m -10.545,-16.345 -0.352,0.176 z"
       fill-rule="evenodd"
       clip-rule="evenodd"
       id="path14" />
    <path
       d="m 99.365,137.68 1.23,-2.109 v -0.528 l -2.988,-12.127 v -0.176 l -0.176,0.176 0.176,-0.176 -1.405,-1.582 v -7.381 4.744 l 0.352,-0.174 v 0.174 h -0.352 l 1.054,2.812 0.352,-0.176 v 0.176 -0.176 l 0.176,0.352 2.109,-2.285 v -0.176 h -0.352 l 0.352,0.176 -0.352,-0.176 v -0.176 l 0.352,0.176 c 0.879,-2.107 1.582,-5.271 2.461,-7.381 h -0.527 0.527 -0.527 0.527 V 99.189 c 0.527,-2.107 1.758,-4.569 3.516,-6.151 1.582,-1.406 3.338,-2.108 5.623,-1.406 l 1.23,0.879 c 1.758,1.933 1.934,3.164 1.934,5.271 v 2.462 l 0.352,0.176 1.406,0.352 1.756,3.164 c 1.582,3.34 1.758,5.096 1.934,8.611 l 0.703,0.176 -0.352,-0.176 0.352,0.176 1.758,-5.447 h -0.352 0.352 c 0.527,-1.934 2.109,-3.691 2.637,-6.68 v -0.176 c -0.879,-8.436 -4.746,-8.436 -9.842,-13.356 1.758,-4.042 3.514,-9.666 6.854,-12.654 h 0.352 c 1.23,0.703 2.109,1.406 2.637,1.933 0.527,1.055 0.879,1.933 1.23,2.636 0.351,0.703 0.352,1.758 0.703,2.812 0.352,3.164 0,6.502 -0.176,9.666 h 0.352 -0.352 v 0.176 l 0.703,2.109 -2.461,9.842 v 0.176 c -0.176,4.92 -1.406,9.666 1.758,14.061 1.23,1.404 2.107,1.404 2.635,2.811 l 0.527,-0.176 0.176,0.176 0.879,-1.055 v -0.353 h -0.352 l 0.352,0.352 -0.352,-0.352 h 0.352 l 0.352,-10.193 2.812,-8.26 0.352,0.352 -2.637,7.205 0.352,0.176 -0.352,-0.176 v 0.176 l -0.527,8.965 h 0.352 -0.352 v 0.176 h 0.176 l 4.746,6.326 c 0.527,2.109 0.703,5.799 -0.527,8.611 -1.758,2.637 -3.164,3.867 -5.098,4.922 h -5.623 c 1.23,-3.867 -0.176,-5.801 -2.285,-8.789 0.352,-3.689 0.352,-5.975 -2.812,-8.084 h -0.176 v 0.352 -0.352 l -0.703,-0.176 v 0.352 -0.352 h -0.176 l -1.229,-2.635 c -0.527,-0.703 -0.879,-1.582 -1.055,-2.285 h -0.352 0.352 c -0.703,-2.637 -1.23,-5.098 -1.582,-7.732 h -0.703 l -3.164,12.301 -2.988,9.314 h 0.352 -0.528 0.176 v 7.207 l -0.877,1.055 z m -2.109,-16.346 0.176,0.703 0.352,-0.527 -0.176,-0.176 z m 32.338,-0.703 0.352,0.527 0.352,-0.527 -0.176,-0.176 z m -20.914,15.994 z m -8.612,-1.406 0.527,0.352 z m 36.03,-2.637 z M 96.026,121.334 Z m 21.267,-3.338 z m -21.618,-4.219 h 0.176 z m 24.604,-1.23 h -0.176 z m 0.176,0 z m -5.799,-4.744 h 0.527 z m 10.545,-4.043 h 0.352 z m 10.194,-2.989 z m -20.387,-0.703 v 0.352 z"
       fill-rule="evenodd"
       clip-rule="evenodd"
       fill="#ffffff"
       id="path16" />
    <path
       d="m 107.801,138.383 0.352,-0.527 z m -8.963,0 h -0.703 z m 10.017,-8.965 1.406,-5.271 1.23,-3.867 2.285,-8.611 0.879,-3.34 0.176,0.352 c 0.527,2.285 0.703,4.746 1.582,6.855 l -0.352,0.176 c -0.703,-1.934 -1.055,-3.867 -1.406,-5.977 l -2.637,10.545 h -0.176 0.176 -0.176 l -2.637,9.139 v 4.922 z m 8.086,-11.07 0.352,-0.352 1.229,2.283 0.176,0.352 h -0.352 z m -0.879,-2.637 0.352,-0.176 c 0.176,0.879 0.527,1.758 0.879,2.461 l -0.352,0.352 c -0.351,-0.879 -0.703,-1.934 -0.879,-2.637 z m -1.23,-28.823 c 1.582,-4.042 3.162,-9.315 6.502,-12.654 v 0.176 c -1.23,1.406 -2.285,2.988 -3.164,4.569 z m -7.205,51.495 v -0.352 0.352 h -9.492 l 0.176,-0.528 0.527,0.176 -0.527,-0.176 1.406,-2.636 -2.811,-12.127 -1.231,-1.582 v -0.176 h 0.351 l 1.23,1.758 2.812,12.127 -1.23,2.812 h 8.789 l 1.053,-1.406 h 0.527 v 0.352 l -1.055,0.878 -0.351,0.528 z m 23.197,-0.176 v -0.352 0.352 h -3.865 v -0.352 h 3.865 c 1.934,-1.055 3.691,-2.109 5.273,-5.098 v -0.176 l 0.176,0.176 h 0.176 c -1.758,3.164 -3.164,4.219 -5.449,5.449 h -0.176 z"
       fill-rule="evenodd"
       clip-rule="evenodd"
       id="path18" />
    <path
       d="m 124.85,138.207 h -0.703 l 0.176,-0.527 0.527,0.176 -0.527,-0.176 c 0,-0.176 0,-0.352 0.352,-0.703 0.176,0 0.176,0.352 0.352,0 -0.176,0.352 -0.176,0.703 -0.176,0.879 h 2.109 v 0.352 h -2.11 z m 0.175,-1.406 c 0,-0.352 -0.176,-0.527 -0.176,-0.703 0.352,-2.812 -0.703,-4.219 -2.637,-7.207 h -0.176 v -0.176 c 0.352,-3.865 0.527,-5.447 -2.285,-7.381 l -0.703,-0.176 0.176,-0.352 -0.176,0.352 0.176,-0.352 0.703,0.176 c 3.164,2.109 2.988,4.043 2.461,7.732 2.286,3.165 3.341,4.747 2.637,8.087 z m -2.812,-7.91 0.176,-0.176 z m -13.533,0.527 1.582,-5.271 -1.406,5.271 0.352,4.922 v 2.285 h -0.527 v -7.207 z m 27.418,3.164 c 1.406,-2.812 1.23,-6.502 0.703,-8.787 l -4.922,-6.326 0.527,-8.965 2.988,-7.732 0.352,0.352 -0.352,-0.352 0.176,-0.176 h 0.176 v 0.527 l -2.988,7.381 -0.527,8.789 4.922,6.326 v 0.176 c 0.527,2.285 0.703,5.975 -0.703,8.963 z m 0.879,-8.787 h 0.176 z"
       fill-rule="evenodd"
       clip-rule="evenodd"
       id="path20" />
    <path
       d="m 95.148,113.777 v -0.176 H 95.5 l 0.176,0.176 h -0.528 0.703 l 0.175,7.557 h -0.351 z m 2.459,7.381 -1.054,-2.637 v -0.174 l -0.176,-6.68 -0.703,2.109 -0.176,-0.176 0.527,-1.934 h 0.703 l 0.176,6.68 0.877,2.283 1.582,-1.758 c 0.703,-2.107 1.406,-5.271 2.109,-7.381 V 99.189 h 0.352 v 12.479 c -0.703,2.109 -1.582,5.098 -2.285,7.205 v 0.176 z m 21.442,0 z m -0.352,-0.176 h -0.176 v -0.176 l -0.176,-0.176 h 0.352 l -0.176,-0.352 0.176,0.352 0.527,0.176 -0.176,0.352 z m 8.614,-3.337 0.352,-0.176 -0.352,0.176 c -0.176,-0.176 -0.176,-0.352 -0.352,-0.527 v -0.703 c 0.176,0.352 0.352,0.703 0.703,1.055 0.701,1.053 1.58,1.229 2.459,2.283 l 0.352,-0.527 0.176,-10.369 H 131 130.648 l 3.164,-8.611 v -0.527 l 0.527,0.176 1.23,0.703 -0.176,0.176 -1.23,-0.527 -3.163,8.608 -0.176,10.369 -0.703,1.23 c -0.879,-1.581 -1.932,-1.581 -2.81,-2.809 z m -0.352,-19.686 1.23,-4.217 -0.879,-2.285 c 0.176,-3.164 0.527,-6.502 0,-9.666 h 0.527 -0.527 c 0,-1.054 -0.176,-2.109 -0.352,-2.812 v -1.055 c 0.352,1.23 0.527,2.285 0.879,3.867 0.525,3.164 0,6.502 -0.176,9.666 l 0.701,2.285 h -0.174 0.35 l -0.176,0.176 -1.404,5.624 v -1.583 z m -3.691,-2.284 c -0.352,-1.055 -1.23,-1.934 -1.934,-2.637 -1.582,-1.582 -4.041,-2.987 -6.678,-5.448 l -0.176,-0.176 0.176,-0.352 c 0,0 0,-0.176 0.176,-0.176 l 3.338,-7.909 c 0.879,-1.582 1.934,-3.163 3.164,-4.569 h 0.352 c -3.34,3.163 -4.92,8.787 -6.678,13.005 4.041,3.691 7.029,4.569 8.611,8.26 h -0.351 z m -8.612,-8.084 0.352,-0.176 z m -11.775,8.084 c 0.527,-1.055 1.406,-2.285 2.461,-3.164 1.582,-1.582 4.041,-2.46 6.502,-1.582 l -0.527,0.176 c -3.689,-0.879 -6.502,1.757 -8.084,4.569 h -0.352 z"
       fill-rule="evenodd"
       clip-rule="evenodd"
       id="path22" />
    <path
       d="m 125.553,103.76 1.406,-5.801 v 1.582 l -1.055,4.219 c -0.176,4.568 -0.879,8.787 1.055,12.654 v 0.703 c -2.637,-4.219 -1.582,-8.613 -1.406,-13.357 z m -5.098,8.435 0.176,-1.582 1.23,-3.514 c 0.527,-2.285 2.109,-3.691 2.461,-6.68 -0.176,-1.934 -0.527,-3.514 -1.055,-4.745 h 0.352 c 0.527,1.231 1.055,2.811 1.23,4.745 -0.527,3.164 -1.934,4.57 -2.637,6.855 l -1.758,5.271 z m -5.799,-4.392 c 0.176,0.35 0.176,0.525 0.176,0.877 l -0.176,-0.352 -0.879,3.34 z m 3.865,-4.043 -1.932,-3.164 -1.406,-0.527 h 0.352 l 0.527,-0.176 0.703,0.352 h 0.176 v 0.176 l 1.932,3.164 -0.352,0.175 h 0.176 l 0.176,-0.176 c 0.176,0.352 0.352,0.703 0.703,1.23 l -0.352,0.527 0.352,1.055 c -0.351,-0.878 -0.703,-1.582 -1.055,-2.636 z m -17.046,-4.571 c 0.176,-1.055 0.879,-2.283 1.406,-3.514 h 0.352 c -0.527,1.231 -1.23,2.459 -1.406,3.514 z"
       fill-rule="evenodd"
       clip-rule="evenodd"
       id="path24" />
    <path
       d="m 98.838,138.031 1.23,-2.812 -2.812,-12.127 -1.229,-1.758 -0.175,-7.557 h -0.176 l 0.703,-2.109 0.176,6.68 -0.352,0.174 v -4.744 7.381 l 1.405,1.582 -0.176,0.176 0.176,-0.176 v 0.176 l 2.988,12.127 v 0.528 l -1.23,2.109 h 8.086 l 0.877,-1.055 v -7.207 h -0.176 0.528 -0.352 l 2.988,-9.314 3.164,-12.301 h 0.176 l -3.164,12.477 -2.812,9.139 v 7.207 l -1.053,1.406 h -8.79 z m 1.758,-2.461 -0.527,-0.352 z m 24.254,2.285 c 0,-0.176 0,-0.527 0.176,-0.879 V 136.8 c 0.703,-3.34 -0.352,-4.922 -2.637,-8.086 0.527,-3.689 0.703,-5.623 -2.461,-7.732 v -0.352 h 0.176 c 3.164,2.109 3.164,4.395 2.812,8.084 2.109,2.988 3.516,4.922 2.285,8.789 h 5.623 c 1.934,-1.055 3.34,-2.285 5.098,-4.922 1.23,-2.812 1.055,-6.502 0.527,-8.611 l -4.746,-6.326 h -0.176 v -0.176 h 0.352 -0.352 l 0.527,-8.965 v -0.176 l 0.352,0.176 -0.527,8.965 4.922,6.326 c 0.527,2.285 0.703,5.975 -0.703,8.787 v 0.176 c -1.582,2.988 -3.34,4.043 -5.273,5.098 z M 97.256,121.334 h 0.352 l 0.176,0.176 -0.352,0.527 z m 0.351,-0.176 1.934,-2.109 0.352,0.176 -0.352,-0.176 h 0.352 v 0.176 l -2.109,2.285 z m -1.405,-2.637 h 0.352 v -0.174 0.174 l 1.054,2.637 -0.352,0.176 z m 33.392,2.11 0.527,-0.176 0.176,0.176 -0.352,0.527 z m -9.666,0.351 -0.703,-0.176 v -0.352 l 0.703,0.176 z m -0.703,-0.175 -0.527,-0.176 -1.404,-2.635 c -0.352,-0.703 -0.703,-1.582 -0.879,-2.461 h 0.352 -0.352 0.352 c 0.176,0.703 0.527,1.582 1.055,2.285 l 1.229,2.635 h 0.176 v 0.352 z m 10.896,-0.352 -0.527,0.176 c -0.527,-1.406 -1.404,-1.406 -2.635,-2.811 -3.164,-4.395 -1.934,-9.141 -1.758,-14.061 v -0.176 l 2.461,-9.842 -0.703,-2.109 v -0.176 h 0.352 -0.352 c 0.176,-3.164 0.527,-6.502 0.176,-9.666 -0.352,-1.054 -0.352,-2.109 -0.703,-2.812 0.176,0.176 0.352,0.176 0.527,0 0.176,0.703 0.352,1.758 0.352,2.812 0.527,3.164 0.176,6.502 0,9.666 l 0.879,2.285 -2.637,10.018 h -0.352 0.352 c -0.176,4.92 -1.23,9.666 1.758,13.885 0.878,1.229 1.931,1.229 2.81,2.811 l 0.703,-1.23 0.352,0.352 -0.352,-0.352 h 0.352 v 0.352 l -0.879,1.055 z m 0.703,-1.23 0.176,-10.37 3.164,-8.611 1.23,0.527 -2.988,7.732 -0.352,-0.176 2.637,-7.205 -0.352,-0.352 -2.812,8.26 -0.352,10.193 h -0.351 z m -31.283,-0.352 c 0.703,-2.107 1.582,-5.096 2.285,-7.205 h 0.527 -0.527 0.527 c -0.879,2.109 -1.582,5.273 -2.461,7.381 z m 16.873,-3.338 c -0.879,-2.285 -1.23,-4.922 -1.758,-7.732 h 0.528 c 0.352,2.635 0.879,5.096 1.582,7.732 z m 4.041,-2.988 v -0.352 0.352 l 1.758,-5.271 h 0.352 l -1.758,5.447 z m -0.351,0 h 0.352 l 0.352,0.176 z m -1.934,-8.611 -1.756,-3.164 -1.406,-0.352 -0.352,-0.176 v -0.176 h 0.352 v 0.352 -0.352 h 0.176 l 1.406,0.527 1.932,3.164 c 0.352,1.055 0.703,1.758 1.055,2.637 l 0.352,2.107 0.352,4.043 h -0.176 c -0.177,-3.515 -0.353,-5.271 -1.935,-8.61 z m -16.344,7.732 V 99.189 c 1.055,-3.866 4.219,-9.314 9.49,-8.083 l -0.176,0.176 0.352,0.351 c -2.285,-0.703 -4.041,0 -5.623,1.406 -1.758,1.582 -2.988,4.043 -3.516,6.151 v 12.479 h -0.527 z m 12.83,-3.865 h -0.176 0.703 z m 7.557,-0.528 c 0.703,-2.285 2.109,-3.691 2.637,-6.855 -0.879,-8.26 -4.57,-7.908 -9.842,-13.005 1.758,-4.218 3.338,-9.842 6.678,-13.005 h 0.527 c -3.34,2.988 -5.096,8.611 -6.854,12.654 5.096,4.921 8.963,4.921 9.842,13.356 v 0.176 c -0.527,2.988 -2.109,4.746 -2.637,6.68 h -0.351 z m -7.557,-9.492 c 0.176,0.176 0.176,0.352 0,0.352 z m 7.908,-23.373 h 0.527 c 0,0 1.23,0.527 1.934,1.757 l 0.176,0.176 c -0.527,-0.527 -1.406,-1.054 -2.637,-1.933 z"
       fill-rule="evenodd"
       clip-rule="evenodd"
       id="path26" />
    <path
       d="m 114.656,100.068 c 0,-3.162 0.527,-4.92 -1.934,-7.557 l -1.582,-1.23 0.879,-0.352 1.406,0.527 c 1.582,1.406 1.934,1.406 2.812,3.339 h 0.527 l 0.176,-1.055 v -1.054 c 2.986,-2.285 5.271,1.757 4.744,4.57 -0.879,1.229 -0.703,1.229 -2.109,1.404 -0.352,-0.176 -0.527,-0.176 -0.879,-0.352 l -0.176,-0.877 -0.701,-0.176 -0.879,0.176 -0.527,0.877 v 1.406 l -0.879,0.352 h -0.878 z m 10.369,-23.901 c -0.703,-1.23 -1.934,-1.757 -1.934,-1.757 h -1.758 l 0.176,-1.055 0.879,-0.527 c 1.23,0 2.461,0.176 3.164,1.055 0.879,0.352 1.23,1.055 1.758,0.879 l 1.053,-0.176 c 2.637,-4.921 6.328,-1.406 5.449,1.582 -1.055,1.23 -0.879,1.23 -2.637,1.406 -0.176,-0.175 -0.527,-0.175 -0.879,-0.351 l -0.352,-0.176 -0.879,-0.879 -1.229,-0.351 -0.879,0.527 c 0,1.933 0,2.812 -0.176,2.812 -0.349,-0.001 -1.052,-1.583 -1.756,-2.989 z m -5.097,32.337 -0.703,-3.162 0.351,-1.055 0.528,-0.351 0.703,0.175 0.703,1.407 -0.176,2.109 -0.879,4.92 z m 3.164,-43.233 -2.461,-2.285 -1.582,-1.055 0.527,-0.175 4.219,2.636 2.988,2.636 v 1.582 l -1.406,0.176 z"
       fill-rule="evenodd"
       clip-rule="evenodd"
       fill="#ffee65"
       id="path28" />
    <path
       d="m 120.455,136.977 c -0.352,-0.527 0,-1.23 -0.527,-1.934 h -0.879 c -0.879,-1.934 -1.756,-4.043 -2.107,-6.678 0,-0.879 0.176,-2.109 0.176,-3.34 0.176,-0.176 0.703,-0.352 1.404,-0.352 0.176,0 -0.352,-0.352 -0.352,-0.703 -0.176,-0.352 0,-0.879 0.176,-1.055 0.176,-0.527 1.23,-0.527 1.582,-0.527 1.582,0 1.934,1.582 1.758,2.637 0,0.527 -1.055,1.055 -1.406,1.406 v 0.703 l 1.23,0.352 0.176,1.229 -0.176,1.055 c -0.176,0.352 0.527,0.703 0.703,1.055 0.352,0.703 0.352,2.461 0.879,3.34 0.352,0.527 0.527,1.406 0.879,1.582 0.352,0.352 1.055,0.352 1.055,1.055 0,0.703 -0.176,0.176 -1.055,0 -0.703,-0.176 -1.934,0 -2.109,0 l -0.352,0.527 c 0,0.176 -0.176,0.176 -0.527,0.176 -0.176,-0.001 -0.528,-0.177 -0.528,-0.528 z m -0.879,-13.709 c 0,0.352 0.176,0.527 0.352,0.527 0.352,0 0.527,-0.176 0.527,-0.527 0,-0.176 -0.176,-0.352 -0.527,-0.352 a 0.379,0.379 0 0 0 -0.352,0.352 z m -2.459,1.757 c -0.176,0 -0.176,0.352 -0.176,0.352 0,0 0,-0.352 0.176,-0.352 z m 0,0 z"
       fill-rule="evenodd"
       clip-rule="evenodd"
       fill="#ffffff"
       id="path30" />
    <path
       d="m 119.576,123.268 c 0,-0.176 0.176,-0.352 0.352,-0.352 0.352,0 0.527,0.176 0.527,0.352 0,0.352 -0.176,0.527 -0.527,0.527 -0.176,0 -0.352,-0.176 -0.352,-0.527 z"
       fill-rule="evenodd"
       clip-rule="evenodd"
       id="path32" />
  </g>
</svg>
