<?xml version="1.0" encoding="UTF-8" standalone="no"?>
<svg
   width="22"
   viewBox="0 0 22 22"
   version="1.1"
   height="22"
   id="svg2427"
   sodipodi:docname="archlinux-logo.svg"
   inkscape:version="1.1 (c68e22c387, 2021-05-23)"
   xmlns:inkscape="http://www.inkscape.org/namespaces/inkscape"
   xmlns:sodipodi="http://sodipodi.sourceforge.net/DTD/sodipodi-0.dtd"
   xmlns="http://www.w3.org/2000/svg"
   xmlns:svg="http://www.w3.org/2000/svg">
  <sodipodi:namedview
     id="namedview2429"
     pagecolor="#ffffff"
     bordercolor="#666666"
     borderopacity="1.0"
     inkscape:pageshadow="2"
     inkscape:pageopacity="0.0"
     inkscape:pagecheckerboard="0"
     showgrid="false"
     inkscape:zoom="16.707692"
     inkscape:cx="25.168048"
     inkscape:cy="12.539134"
     inkscape:window-width="1276"
     inkscape:window-height="758"
     inkscape:window-x="0"
     inkscape:window-y="0"
     inkscape:window-maximized="1"
     inkscape:current-layer="svg2427"
     inkscape:snap-global="false" />
  <defs
     id="defs2420">
    <linearGradient
       id="lg"
       y1="0.26923999"
       x2="0.28128999"
       x1="0.54637998"
       y2="0.79518998">
      <stop
         stop-color="#fff"
         stop-opacity="0"
         offset="0"
         id="stop2415" />
      <stop
         stop-color="#fff"
         stop-opacity=".27451"
         offset="1"
         id="stop2417" />
    </linearGradient>
    <filter
       style="color-interpolation-filters:sRGB;"
       inkscape:label="Colorize"
       id="filter2713"
       x="0"
       y="0"
       width="1"
       height="1">
      <feComposite
         in2="SourceGraphic"
         operator="arithmetic"
         k1="0"
         k2="1"
         result="composite1"
         id="feComposite2699" />
      <feColorMatrix
         in="composite1"
         values="1"
         type="saturate"
         result="colormatrix1"
         id="feColorMatrix2701" />
      <feFlood
         flood-opacity="0"
         flood-color="rgb(0,0,0)"
         result="flood1"
         id="feFlood2703" />
      <feBlend
         in="flood1"
         in2="colormatrix1"
         mode="multiply"
         result="blend1"
         id="feBlend2705" />
      <feBlend
         in2="blend1"
         mode="screen"
         result="blend2"
         id="feBlend2707" />
      <feColorMatrix
         in="blend2"
         values="1"
         type="saturate"
         result="colormatrix2"
         id="feColorMatrix2709" />
      <feComposite
         in="colormatrix2"
         in2="SourceGraphic"
         operator="in"
         k2="1"
         result="composite2"
         id="feComposite2711" />
    </filter>
  </defs>
  <path
     d="M 11.178345,0.13183087 C 10.199,2.5326807 9.6043125,4.1052316 8.5142812,6.4348221 9.1825312,7.1432898 10.004094,7.9655387 11.336814,8.8974436 9.9040626,8.3079132 8.9274687,7.7176953 8.1973437,7.1034149 6.8020624,10.014973 4.6144375,14.160936 0.17834371,22.1318 3.6639687,20.11949 6.3665312,18.877867 8.8848437,18.40418 8.7769062,17.939775 8.7195,17.43515 8.723625,16.910932 l 0.00275,-0.11 c 0.055344,-2.233684 1.2175626,-3.9514 2.594282,-3.834869 1.376375,0.116531 2.448188,2.022622 2.392844,4.25665 -0.01066,0.42075 -0.05947,0.824999 -0.142312,1.200373 2.491156,0.487437 5.167937,1.723217 8.607156,3.708714 -0.678219,-1.248498 -1.285625,-2.37359 -1.863813,-3.445745 -0.910593,-0.705718 -1.860031,-1.623873 -3.797406,-2.61834 1.331688,0.346156 2.285938,0.74628 3.029125,1.192467 C 13.668814,6.316916 13.193751,4.8618243 11.178345,0.13183087 v -3.094e-5 z"
     fill="#dcdcdc"
     id="path2422"
     style="stroke-width:0.34375;filter:url(#filter2713)" />
  <path
     id="path2522"
     fill-opacity="0.16568"
     fill="#ffffff"
     d="M 50.266,38.249 C 36.394,19.422 33.179,4.247 32.364,0.624 c 7.4,17.067 7.349,17.277 17.902,37.625 z" />
  <path
     d="m 32.378,0.45992 c -0.36,0.88448 -0.7,1.7468 -1.032,2.5625 -0.364,0.8946 -0.718,1.7565 -1.062,2.5938 -0.344,0.8373 -0.693,1.6309 -1.031,2.4375 -0.339,0.8065 -0.654,1.6039 -1,2.4063 -0.346,0.802 -0.726,1.613 -1.094,2.437 -0.368,0.825 -0.752,1.658 -1.156,2.532 -0.404,0.873 -0.828,1.801 -1.282,2.75 -0.061,0.128 -0.124,0.276 -0.187,0.406 1.939,2.054 4.33,4.427 8.187,7.125 -4.167,-1.715 -7,-3.432 -9.125,-5.219 -0.11,0.226 -0.198,0.425 -0.312,0.656 -0.42,0.871 -0.871,1.733 -1.344,2.688 -0.113,0.224 -0.196,0.427 -0.312,0.656 -0.501,1.004 -1.026,2.043 -1.594,3.156 -0.113,0.22 -0.228,0.402 -0.344,0.625 -0.343,0.667 -1.44,2.77 -2.562,4.907 -0.655,1.248 -1.169,2.27 -1.907,3.656 -0.209,0.398 -0.639,1.195 -0.75,1.406 8.125,-4.573 16.891,-11.216 32.813,-5.531 -0.797,-1.51 -1.562,-2.919 -2.25,-4.25 -0.688,-1.332 -1.312,-2.571 -1.906,-3.75 -0.594,-1.179 -1.143,-2.291 -1.657,-3.344 -0.513,-1.053 -0.989,-2.047 -1.437,-3 -0.448,-0.953 -0.885,-1.87 -1.281,-2.75 -0.397,-0.879 -0.766,-1.73 -1.125,-2.562 -0.359,-0.833 -0.695,-1.658 -1.032,-2.469 -0.336,-0.8115 -0.672,-1.5896 -1,-2.4063 -0.142,-0.3554 -0.263,-0.7338 -0.406,-1.0938 -0.888,-2.0849 -1.759,-4.1515 -2.812,-6.625 v 2e-5 z"
     fill="url(#lg)"
     id="path2425" />
</svg>
