<?xml version="1.0" encoding="UTF-8" standalone="no"?>
<svg
   sodipodi:docname="fedora-logo-22.svg"
   id="svg2"
   height="22"
   width="22"
   version="1.0"
   inkscape:version="1.1 (c68e22c387, 2021-05-23)"
   xmlns:inkscape="http://www.inkscape.org/namespaces/inkscape"
   xmlns:sodipodi="http://sodipodi.sourceforge.net/DTD/sodipodi-0.dtd"
   xmlns:xlink="http://www.w3.org/1999/xlink"
   xmlns="http://www.w3.org/2000/svg"
   xmlns:svg="http://www.w3.org/2000/svg">
  <sodipodi:namedview
     id="namedview10"
     pagecolor="#ffffff"
     bordercolor="#666666"
     borderopacity="1.0"
     inkscape:pageshadow="2"
     inkscape:pageopacity="0.0"
     inkscape:pagecheckerboard="0"
     showgrid="false"
     inkscape:zoom="16.269663"
     inkscape:cx="9.0659531"
     inkscape:cy="12.262086"
     inkscape:window-width="1276"
     inkscape:window-height="758"
     inkscape:window-x="0"
     inkscape:window-y="0"
     inkscape:window-maximized="1"
     inkscape:current-layer="svg2" />
  <defs
     id="defs5" />
  <path
     d="m 21.432923,11.015183 c 0,-5.7547461 -4.665132,-10.42002954 -10.419836,-10.42002954 -5.7521158,0 -10.41542997,4.66136604 -10.41951094,10.41268154 v 8.063397 c 0.003095,1.305874 1.06220984,2.363022 2.36890364,2.363022 h 8.0548343 c 5.752782,-0.0022 10.415609,-4.665855 10.415609,-10.419071"
     id="voice"
     style="fill:#ffffff;stroke-width:0.0782694" />
  <path
     d="m 6.6009128,11.687629 h 3.7447812 v 3.744784 c 0,2.067117 -1.6776625,3.744779 -3.7447812,3.744779 -2.0671194,0 -3.744781,-1.677662 -3.744781,-3.744779 0,-2.06712 1.6776616,-3.744784 3.744781,-3.744784 z"
     id="in"
     style="fill:#ffffff;stroke:#f2f2f2;stroke-width:2.28625"
     sodipodi:nodetypes="scssss" />
  <use
     transform="rotate(180,10.33667,11.691271)"
     id="finity"
     xlink:href="#in"
     style="fill:#ffffff;stroke:#f2f2f2"
     x="0"
     y="0"
     width="100%"
     height="100%" />
  <path
     d="m 11.453237,10.547375 v 4.879798 c 0,2.70061 -2.1896152,4.890273 -4.89032,4.890273 -0.4097356,0 -0.7010192,-0.04626 -1.0803018,-0.1454 -0.5530476,-0.14473 -1.0050152,-0.598177 -1.005203,-1.125602 0,-0.637515 0.462757,-1.101241 1.1544964,-1.101241 0.3292301,0 0.4486928,0.06321 0.9310084,0.06321 1.4238465,0 2.5787924,-1.153316 2.5812899,-2.577162 v -2.242929 c 0,-0.200976 -0.1633193,-0.363817 -0.3646314,-0.363817 l -1.6957232,-3.13e-4 c -0.6318,0 -1.1422645,-0.503931 -1.1422645,-1.137462 -3.366e-4,-0.63747 0.5157014,-1.139334 1.1543236,-1.139334"
     id="free"
     style="fill:#333333;stroke-width:0.0782694" />
  <use
     transform="rotate(180,10.317652,11.691271)"
     id="dom"
     xlink:href="#free"
     style="fill:#333333"
     x="0"
     y="0"
     width="100%"
     height="100%" />
  <path
     d="m 19.634982,19.630933 c 0,0 3e-6,-0.432939 3e-6,-0.432939 l -0.197906,0.453787 c 0,0 -0.192653,-0.453787 -0.192653,-0.453787 l 3.6e-5,0.432939 h -0.111009 v -0.683677 h 0.11639 c 0,0 0.190505,0.436784 0.190505,0.436784 l 0.18762,-0.436784 h 0.11783 v 0.683677 z M 18.826223,19.06177 v 0.569163 H 18.710217 V 19.06177 h -0.194489 v -0.114514 h 0.504795 v 0.114514"
     id="TM"
     style="fill:#676767;stroke-width:0.0782694" />
</svg>
