<?xml version="1.0" encoding="UTF-8" standalone="no"?>
<svg
   width="22"
   height="22"
   viewBox="0 0 22 22"
   version="1.1"
   preserveAspectRatio="xMidYMid"
   id="svg10"
   sodipodi:docname="FreeBSD-logo-22.svg"
   inkscape:version="1.1 (c68e22c387, 2021-05-23)"
   xmlns:inkscape="http://www.inkscape.org/namespaces/inkscape"
   xmlns:sodipodi="http://sodipodi.sourceforge.net/DTD/sodipodi-0.dtd"
   xmlns="http://www.w3.org/2000/svg"
   xmlns:svg="http://www.w3.org/2000/svg">
  <defs
     id="defs14" />
  <sodipodi:namedview
     id="namedview12"
     pagecolor="#ffffff"
     bordercolor="#666666"
     borderopacity="1.0"
     inkscape:pageshadow="2"
     inkscape:pageopacity="0.0"
     inkscape:pagecheckerboard="0"
     showgrid="false"
     inkscape:zoom="17.238095"
     inkscape:cx="8.6146409"
     inkscape:cy="13.893646"
     inkscape:window-width="1276"
     inkscape:window-height="758"
     inkscape:window-x="0"
     inkscape:window-y="0"
     inkscape:window-maximized="1"
     inkscape:current-layer="svg10" />
  <g
     fill="rgba(0, 0, 0, 0)"
     id="g8"
     transform="matrix(0.08228257,0,0,0.08457073,0.44550117,0.45235408)"
     style="fill:#ffffff;stroke:#000000">
    <path
       d="m 252.72296,5.1092398 c 13.50776,13.5014392 -23.93868,72.8490162 -30.26925,79.1827522 -6.33058,6.3211 -22.40974,0.505435 -35.91118,-12.999163 -13.50775,-13.50144 -19.32658,-29.583758 -12.996,-35.914335 6.32742,-6.333736 65.67183,-43.7770117 79.17643,-30.2692542"
       id="path2"
       style="fill:#ffffff;stroke:#000000" />
    <path
       d="M 63.30478,19.394104 C 42.683021,7.6932776 13.339345,-5.3216805 4.0045873,4.013077 -5.4533701,13.467875 8.0385925,43.471776 19.862619,64.131443 30.385149,45.837845 45.352351,30.437864 63.30478,19.394104"
       id="path4"
       style="fill:#ffffff;stroke:#000000" />
    <path
       d="m 232.12332,79.63567 c 1.89854,6.44114 1.55737,11.760846 -1.52263,14.834525 -7.19297,7.196135 -26.6238,-0.464369 -44.14029,-17.134256 -1.22252,-1.096163 -2.43557,-2.233392 -3.6265,-3.427483 -6.33373,-6.336894 -11.26173,-13.081296 -14.41438,-19.291832 -6.13472,-11.005853 -7.66998,-20.726005 -3.03261,-25.363373 2.52717,-2.524018 6.57066,-3.212673 11.50181,-2.325003 3.21583,-2.034377 7.01291,-4.299358 11.17644,-6.621202 C 171.13623,11.477724 151.88863,6.4897098 131.4722,6.4897098 63.753354,6.4897098 8.8536069,61.37998 8.8536069,129.10515 c 0,67.71253 54.8997471,122.60911 122.6185931,122.60911 67.71885,0 122.61544,-54.89658 122.61544,-122.60911 0,-21.86956 -5.73985,-42.377592 -15.76642,-60.156277 -2.16706,3.955031 -4.27409,7.57837 -6.1979,10.686797"
       id="path6"
       style="fill:#ffffff;stroke:#000000" />
  </g>
</svg>
