<?xml version="1.0" encoding="UTF-8" standalone="no"?>
<svg
   width="22"
   height="22"
   version="1.1"
   id="svg33"
   sodipodi:docname="gentoo-logo-22.svg"
   inkscape:version="1.1 (c68e22c387, 2021-05-23)"
   xmlns:inkscape="http://www.inkscape.org/namespaces/inkscape"
   xmlns:sodipodi="http://sodipodi.sourceforge.net/DTD/sodipodi-0.dtd"
   xmlns:xlink="http://www.w3.org/1999/xlink"
   xmlns="http://www.w3.org/2000/svg"
   xmlns:svg="http://www.w3.org/2000/svg"
   xmlns:rdf="http://www.w3.org/1999/02/22-rdf-syntax-ns#"
   xmlns:cc="http://creativecommons.org/ns#"
   xmlns:dc="http://purl.org/dc/elements/1.1/">
  <sodipodi:namedview
     id="namedview35"
     pagecolor="#ffffff"
     bordercolor="#666666"
     borderopacity="1.0"
     inkscape:pageshadow="2"
     inkscape:pageopacity="0.0"
     inkscape:pagecheckerboard="0"
     showgrid="false"
     inkscape:zoom="13.956626"
     inkscape:cx="10.980222"
     inkscape:cy="10.873406"
     inkscape:window-width="1276"
     inkscape:window-height="758"
     inkscape:window-x="0"
     inkscape:window-y="0"
     inkscape:window-maximized="1"
     inkscape:current-layer="g31" />
  <title
     id="title2">Gentoo Linux logo (matte)</title>
  <defs
     id="defs21">
    <linearGradient
       id="vlpa">
      <stop
         style="stop-color:#ffffff"
         offset="0"
         id="stop4" />
      <stop
         style="stop-color:#ffffff"
         offset=".3421"
         id="stop6" />
      <stop
         style="stop-color:#ffffff"
         offset=".52"
         id="stop8" />
      <stop
         style="stop-color:#e9e9e9"
         offset=".7541"
         id="stop10" />
      <stop
         style="stop-color:#dadada"
         offset=".8711"
         id="stop12" />
      <stop
         style="stop-color:#787878"
         offset="1"
         id="stop14" />
    </linearGradient>
    <linearGradient
       id="vlpe"
       x1="464"
       x2="368.60001"
       y1="697.40002"
       y2="269.70001"
       gradientTransform="matrix(0.04068236,0,0,0.04068236,20.774762,13.026598)"
       gradientUnits="userSpaceOnUse"
       xlink:href="#vlpa" />
    <linearGradient
       id="vlpd"
       x1="783.90002"
       x2="1100"
       y1="-313.5"
       y2="1341"
       gradientTransform="matrix(1.237,0,0,1.237,-1037,-1010)"
       gradientUnits="userSpaceOnUse"
       xlink:href="#vlpa" />
    <radialGradient
       id="vlpc"
       cx="332.70001"
       cy="590.59998"
       r="218"
       gradientTransform="matrix(-0.00217192,0.1378004,-0.11754143,-0.0018506,97.374016,-13.076546)"
       gradientUnits="userSpaceOnUse"
       xlink:href="#vlpa" />
    <radialGradient
       id="vlpb"
       cx="49.529999"
       cy="320.10001"
       r="31.950001"
       gradientTransform="matrix(0.1081026,0,0,0.08287757,29.746587,4.2981438)"
       gradientUnits="userSpaceOnUse"
       xlink:href="#vlpa" />
  </defs>
  <g
     transform="translate(-25.69,-25.52)"
     id="g31">
    <path
       d="m 26.920199,42.599417 c 0.0022,-0.863637 0.73636,-2.069307 1.779566,-3.164804 0.697223,-0.732085 1.4053,-1.374715 2.94873,-2.690561 -1.067541,-0.585734 -2.728052,-1.292495 -3.561761,-2.21829 -0.308292,-0.342364 -0.866926,-1.118518 -0.758725,-2.155145 0.220876,-2.11305 2.82869,-5.317977 6.53483,-5.998758 1.233297,-0.225578 2.649451,-0.06275 3.814999,0.461089 3.657137,1.643738 8.126605,5.729076 8.679122,7.722083 0.193645,0.701829 0.156448,1.820676 -0.177431,2.444231 -0.413729,0.772866 -1.846327,2.342278 -3.805131,3.962995 -3.075021,2.541249 -7.383338,5.268644 -10.603066,5.729076 -1.039587,0.148357 -2.101867,-0.0064 -2.847107,-0.426886 -1.166206,-0.658088 -1.553297,-1.536523 -1.689453,-1.799955 -0.361767,-0.700185 -0.316941,-1.587501 -0.316152,-1.865733 z m 8.652812,-9.701937 c 0.03969,-0.489701 1.959791,-0.0022 1.838435,0.385776 -0.128,0.409125 -1.884149,0.176115 -1.838435,-0.385776 z"
       style="fill:#cccccc;fill-rule:evenodd;stroke-width:0.0328879"
       id="path23" />
    <path
       d="m 32.686767,35.936324 c -1.010317,0.853113 -1.682217,1.428323 -2.524476,2.198229 -2.028528,1.853892 -3.407189,3.265113 -2.696152,5.193003 0.819566,2.225197 2.616563,2.112391 4.722705,1.698661 5.429795,-1.07116 14.358866,-7.935855 13.905013,-10.468225 -0.368345,-2.051219 -5.357442,-6.130309 -8.30749,-7.580666 -0.922505,-0.453525 -1.985772,-0.687686 -3.052327,-0.637696 -4.061658,0.191671 -7.232053,3.887352 -7.070902,5.893515 0.157598,1.948938 5.084472,3.64727 5.025274,3.706468 z m -0.609413,-6.80451 c -1.221786,1.359587 -0.440698,3.989305 1.585526,5.423217 2.37122,1.677614 6.20924,1.981169 6.975529,0.687687 1.425362,-2.412986 -0.130895,-4.966076 -2.453768,-6.103998 -2.295577,-1.124766 -5.344287,-0.855414 -6.107287,-0.008 z"
       style="fill:url(#vlpe);fill-rule:evenodd;stroke-width:0.0328879"
       id="path25" />
    <path
       d="m 36.245241,34.499123 c 1.715433,0.238437 3.194074,-0.448592 3.423631,-2.14232 0.176115,-1.290193 -1.798639,-2.700098 -2.985894,-3.02536 -0.99157,-0.271522 -3.144085,0.07761 -3.288792,1.952885 -0.150857,1.949267 1.849617,3.076008 2.849739,3.214795 z m -0.839958,-3.242092 c -1.127398,1.746349 1.636832,2.283408 2.060099,1.965054 1.824621,-1.373071 -1.563492,-2.734303 -2.060099,-1.965054 z"
       style="fill:url(#vlpb);fill-rule:evenodd;stroke-width:0.0328879"
       id="path27" />
    <path
       d="m 34.406805,26.802362 c -1.993994,0.210155 -2.376152,0.466681 -4.183343,1.833502 -0.605467,0.458129 -1.719709,1.5727 -2.005506,2.895124 -0.10876,0.503514 0.0198,0.938292 0.382487,1.243163 1.161273,0.976442 3.105277,1.768383 4.699684,2.534343 0.467008,0.224296 0.157829,0.631119 -0.595272,1.282958 -1.900592,1.645382 -4.469468,3.64727 -4.650351,5.17327 -0.08452,0.719259 0.161677,1.696359 1.034654,2.196584 1.019854,0.584089 3.13652,0.202918 4.551687,-0.323453 2.065691,-0.769249 4.778616,-2.466593 6.932775,-4.134012 2.239996,-1.735166 4.321472,-3.939972 4.426713,-4.29845 0.12652,-0.441357 0.113891,-0.849166 -0.130236,-1.31782 -0.383473,-0.736031 -0.895866,-1.282956 -1.44641,-1.89533 C 41.947019,30.435326 40.384514,29.067518 38.51352,28.01938 37.163471,27.262301 35.975888,26.6371 34.405818,26.802527 Z m 2.929328,3.489409 c 1.440819,0.696566 2.920118,2.52612 -0.01284,3.578206 -0.797532,0.286322 -3.328257,-0.703144 -3.249326,-2.053523 0.112904,-1.99498 1.503307,-2.375823 3.262153,-1.52534 z"
       style="fill:url(#vlpc);fill-rule:evenodd;stroke-width:0.0328879"
       id="path29" />
  </g>
  <metadata
     id="metadata445">
    <rdf:RDF>
      <cc:Work
         rdf:about="">
        <dc:title>Gentoo Linux logo (matte)</dc:title>
      </cc:Work>
    </rdf:RDF>
  </metadata>
</svg>
