<?xml version="1.0" encoding="UTF-8" standalone="no"?>
<!-- Created with Inkscape (http://www.inkscape.org/) -->

<svg
   version="1.1"
   id="svg2"
   xml:space="preserve"
   width="5.5562496mm"
   height="5.8208332mm"
   viewBox="0 0 20.999999 22"
   sodipodi:docname="github-logo-22.svg"
   inkscape:version="1.1 (c68e22c387, 2021-05-23)"
   xmlns:inkscape="http://www.inkscape.org/namespaces/inkscape"
   xmlns:sodipodi="http://sodipodi.sourceforge.net/DTD/sodipodi-0.dtd"
   xmlns="http://www.w3.org/2000/svg"
   xmlns:svg="http://www.w3.org/2000/svg"><defs
     id="defs6" /><sodipodi:namedview
     id="namedview4"
     pagecolor="#ffffff"
     bordercolor="#666666"
     borderopacity="1.0"
     inkscape:pageshadow="2"
     inkscape:pageopacity="0.0"
     inkscape:pagecheckerboard="0"
     showgrid="false"
     inkscape:zoom="10.24"
     inkscape:cx="14.013672"
     inkscape:cy="9.4238282"
     inkscape:window-width="1276"
     inkscape:window-height="758"
     inkscape:window-x="0"
     inkscape:window-y="0"
     inkscape:window-maximized="1"
     inkscape:current-layer="layer2"
     inkscape:snap-bbox="true"
     inkscape:object-paths="true"
     inkscape:snap-intersection-paths="true"
     inkscape:bbox-paths="true"
     inkscape:bbox-nodes="true"
     inkscape:snap-bbox-edge-midpoints="true"
     inkscape:snap-bbox-midpoints="true"
     inkscape:snap-smooth-nodes="true"
     inkscape:snap-midpoints="true"
     inkscape:snap-object-midpoints="true"
     units="mm"
     height="22mm"
     fit-margin-top="0"
     fit-margin-left="0"
     fit-margin-right="0"
     fit-margin-bottom="0"
     inkscape:snap-global="false"
     inkscape:document-units="mm" /><ellipse
     style="fill:#ff0000;stroke:#ffffff;stroke-width:6.43407;stroke-miterlimit:4;stroke-dasharray:none"
     id="path1459"
     cx="81.103134"
     cy="-4917.2954"
     transform="scale(1,-1)"
     rx="75.532959"
     ry="79.282967" /><g
     inkscape:groupmode="layer"
     id="layer2"
     inkscape:label="2"
     style="display:inline"><ellipse
       style="display:inline;fill:#ffffff;stroke:#ffffff;stroke-width:0.268951;stroke-miterlimit:4;stroke-dasharray:none"
       id="path2424"
       cx="10.412944"
       cy="11.273614"
       rx="7.5045013"
       ry="7.7097464" /><ellipse
       style="display:inline;fill:#ffffff;stroke:#ffffff;stroke-width:3.72283473;stroke-miterlimit:4;stroke-dasharray:none"
       id="path360"
       ry="8.1684914"
       rx="7.8547826"
       cy="11.096356"
       cx="10.412944" /></g><g
     id="g8"
     inkscape:groupmode="layer"
     inkscape:label="ink_ext_XXXXXX"
     transform="matrix(1.3333333,0,0,-1.3333333,-0.31375201,666.63937)"
     style="display:inline"><g
       id="g10"
       transform="matrix(0.0756187,0,0,0.0756187,1.9432038,119.92365)"
       style="display:inline"><path
         d="m 81.096176,4994.1171 c -41.434443,0 -75.0371456,-35.2633 -75.0371456,-78.7694 0,-34.7985 21.5003836,-64.3253 51.3208466,-74.7451 3.754612,-0.7355 5.12287,1.7062 5.12287,3.8008 0,1.8827 -0.06503,6.822 -0.100698,13.3939 -20.873831,-4.7568 -25.277988,10.5611 -25.277988,10.5611 -3.413716,9.1019 -8.333904,11.523 -8.333904,11.523 -6.813606,4.8834 0.515885,4.7863 0.515885,4.7863 7.532278,-0.5589 11.494188,-8.1193 11.494188,-8.1193 6.693832,-12.032 17.566104,-8.5577 21.841302,-6.5426 0.68183,5.0893 2.621276,8.5606 4.763532,10.5287 -16.663126,1.971 -34.183184,8.7489 -34.183184,38.9317 0,8.6018 2.925272,15.6297 7.725793,21.1368 -0.773933,2.0004 -3.349223,9.9991 0.737218,20.8455 0,0 6.297635,2.1181 20.634289,-8.0693 5.984352,1.7356 12.406372,2.6182 18.786922,2.6476 6.375931,0 12.793358,-0.912 18.786922,-2.6476 14.327436,10.1874 20.615866,8.0693 20.615866,8.0693 4.09551,-10.8464 1.52017,-18.8539 0.75106,-20.8455 4.80957,-5.5071 7.71195,-12.535 7.71195,-21.1368 0,-30.2623 -17.54766,-36.9195 -34.261495,-38.8699 2.690446,-2.4417 5.090621,-7.2369 5.090621,-14.5884 0,-10.5257 -0.09021,-19.0246 -0.09021,-21.6045 0,-2.1181 1.354444,-4.5598 5.159724,-3.792 29.79738,10.4404 51.27934,39.9407 51.27934,74.7363 0,43.5061 -33.6027,78.7694 -75.050932,78.7694"
         style="fill:#1b1817;fill-opacity:1;fill-rule:evenodd;stroke:none;stroke-width:0.471984"
         id="path14" /></g></g></svg>
