<svg height="350" width="850" xmlns="http://www.w3.org/2000/svg"><path d="m2 356h64v64h-64z" fill="#0192d3"/><path d="m68 356h64v64h-64z" fill="#1a1a1a"/><path d="m153.02856 355.99997v1.422h-6.192v4.509h5.292v1.422h-5.292v5.544h-1.755v-12.897z"/><path d="m158.08206 359.63597c.66599.00001 1.26599.11101 1.8.333.53999.22201.99599.53701 1.368.945.37799.40801.66599.90301.864 1.485.20399.57601.30599 1.22101.306 1.935-.00001.72001-.10201 1.36801-.306 1.944-.19801.57601-.48601 1.06801-.864 1.476-.37201.408-.82801.723-1.368.945-.53401.216-1.13401.324-1.8.324-.666 0-1.269-.108-1.809-.324-.534-.222-.99-.537-1.368-.945-.378-.40799-.669-.89999-.873-1.476-.204-.57599-.306-1.22399-.306-1.944 0-.71399.102-1.35899.306-1.935.204-.58199.495-1.07699.873-1.485.378-.40799.834-.72299 1.368-.945.54-.22199 1.143-.33299 1.809-.333m0 8.136c.89999.00001 1.57199-.29999 2.016-.9.44399-.60599.66599-1.44899.666-2.529-.00001-1.08599-.22201-1.93199-.666-2.538-.44401-.60599-1.11601-.90899-2.016-.909-.45601.00001-.852.078-1.188.234-.336.15601-.618.38101-.846.675-.222.29401-.39.65701-.504 1.089-.108.42601-.162.90901-.162 1.449 0 .54001.054 1.02301.162 1.449.114.42601.282.78601.504 1.08.228.28801.51.51001.846.666.336.15601.73199.23401 1.188.234"/><path d="m164.41159 368.89697v-9.117h.954c.228.00001.372.11101.432.333l.126.99c.396-.43799.837-.79199 1.323-1.062.492-.26999 1.059-.40499 1.701-.405.49799.00001.93599.084 1.314.252.38399.16201.70199.39601.954.702.25799.30001.45299.66301.585 1.089.13199.42601.19799.89701.198 1.413v5.805h-1.602v-5.805c-.00001-.68999-.15901-1.22399-.477-1.602-.31201-.38399-.79201-.57599-1.44-.576-.474.00001-.918.11401-1.332.342-.408.22801-.786.53701-1.134.927v6.714z"/><path d="m177.19412 369.04097c-.72 0-1.275-.201-1.665-.603-.384-.40199-.576-.98099-.576-1.737v-5.58h-1.098c-.096.00001-.177-.027-.243-.081-.066-.06-.099-.14999-.099-.27v-.639l1.494-.189.369-2.817c.012-.09.051-.16198.117-.216.066-.06.15-.09.252-.09h.81v3.141h2.61v1.161h-2.61v5.472c0 .38401.093.66901.279.855.186.18601.426.27901.72.279.168.00001.312-.021.432-.063.126-.048.234-.099.324-.153s.165-.10199.225-.144c.066-.048.123-.072.171-.072.084.00001.159.051.225.153l.468.765c-.276.258-.609.462-.999.612-.39.144-.792.216-1.206.216"/><path d="m180.98397 367.90697c-.00001-.15599.027-.30299.081-.441.06-.13799.13799-.25799.234-.36.10199-.10199.22199-.18299.36-.243.13799-.06.28499-.09.441-.09.15599.00001.30299.03.441.09.13799.06.25799.14101.36.243.10199.10201.17999.22201.234.36.06.13801.09.28501.09.441-.00001.16201-.03.312-.09.45-.054.132-.13201.249-.234.351-.10201.102-.22201.18-.36.234-.13801.06-.28501.09-.441.09-.15601 0-.30301-.03-.441-.09-.13801-.054-.25801-.132-.36-.234-.096-.102-.17401-.219-.234-.351-.054-.138-.081-.28799-.081-.45m0-6.75c-.00001-.15599.027-.30299.081-.441.06-.13799.13799-.25799.234-.36.10199-.10199.22199-.18299.36-.243.13799-.06.28499-.09.441-.09.15599.00001.30299.03.441.09.13799.06.25799.14101.36.243.10199.10201.17999.22201.234.36.06.13801.09.28501.09.441-.00001.16201-.03.31201-.09.45-.054.13201-.13201.24901-.234.351-.10201.10201-.22201.18301-.36.243-.13801.054-.28501.081-.441.081-.15601.00001-.30301-.027-.441-.081-.13801-.06-.25801-.14099-.36-.243-.096-.10199-.17401-.21899-.234-.351-.054-.13799-.081-.28799-.081-.45"/><path d="m191.15959 367.42997h5.58v1.467h-7.326v-12.897h1.746z"/><path d="m205.10368 368.89697h-.711c-.156 0-.282-.024-.378-.072s-.159-.15-.189-.306l-.18-.846c-.24.21601-.474.41101-.702.585-.228.168-.468.312-.72.432-.252.114-.522.201-.81.261-.282.06-.597.09-.945.09-.354 0-.687-.048-.999-.144-.306-.102-.573-.252-.801-.45s-.411-.44699-.549-.747c-.132-.30599-.198-.66599-.198-1.08 0-.35999.099-.70499.297-1.035.198-.33599.516-.63299.954-.891.444-.25799 1.023-.46799 1.737-.63.714-.16799 1.587-.26399 2.619-.288v-.711c0-.70799-.153-1.24199-.459-1.602-.3-.36599-.747-.54899-1.341-.549-.39.00001-.72.051-.99.153-.264.096-.495.20701-.693.333-.192.12001-.36.23101-.504.333-.138.096-.276.14401-.414.144-.108.00001-.204-.027-.288-.081-.078-.06-.141-.13199-.189-.216l-.288-.513c.504-.48599 1.047-.84899 1.629-1.089.582-.23999 1.227-.35999 1.935-.36.51.00001.963.084 1.359.252.396.16801.729.40201.999.702.27.30001.474.66301.612 1.089.138.42601.207.89401.207 1.404zm-4.158-.981c.282.00001.54-.027.774-.081.234-.06.453-.14099.657-.243.21-.10799.408-.23699.594-.387.192-.14999.378-.32099.558-.513v-1.899c-.738.024-1.365.084-1.881.18-.516.09-.936.21001-1.26.36-.324.15001-.561.32701-.711.531-.144.20401-.216.43201-.216.684 0 .24001.039.44701.117.621.078.17401.183.31801.315.432.132.10801.288.18901.468.243.18.048.375.072.585.072"/><path d="m210.31131 369.04097c-.72 0-1.275-.201-1.665-.603-.384-.40199-.576-.98099-.576-1.737v-5.58h-1.098c-.096.00001-.177-.027-.243-.081-.066-.06-.099-.14999-.099-.27v-.639l1.494-.189.369-2.817c.012-.09.051-.16198.117-.216.066-.06.15-.09.252-.09h.81v3.141h2.61v1.161h-2.61v5.472c0 .38401.093.66901.279.855.186.18601.426.27901.72.279.16799.00001.31199-.021.432-.063.12599-.048.23399-.099.324-.153.09-.054.16499-.10199.225-.144.066-.048.12299-.072.171-.072.084.00001.15899.051.225.153l.468.765c-.27601.258-.60901.462-.999.612-.39001.144-.79201.216-1.206.216"/><path d="m217.95315 359.63597c.666.00001 1.266.11101 1.8.333.54.22201.996.53701 1.368.945.37799.40801.66599.90301.864 1.485.20399.57601.30599 1.22101.306 1.935-.00001.72001-.10201 1.36801-.306 1.944-.19801.57601-.48601 1.06801-.864 1.476-.372.408-.828.723-1.368.945-.534.216-1.134.324-1.8.324s-1.269-.108-1.809-.324c-.534-.222-.99-.537-1.368-.945-.378-.40799-.669-.89999-.873-1.476-.204-.57599-.306-1.22399-.306-1.944 0-.71399.102-1.35899.306-1.935.204-.58199.495-1.07699.873-1.485.378-.40799.834-.72299 1.368-.945.54-.22199 1.143-.33299 1.809-.333m0 8.136c.9.00001 1.572-.29999 2.016-.9.444-.60599.666-1.44899.666-2.529 0-1.08599-.222-1.93199-.666-2.538-.444-.60599-1.116-.90899-2.016-.909-.456.00001-.852.078-1.188.234-.336.15601-.618.38101-.846.675-.222.29401-.39.65701-.504 1.089-.108.42601-.162.90901-.162 1.449 0 .54001.054 1.02301.162 1.449.114.42601.282.78601.504 1.08.228.28801.51.51001.846.666.336.15601.732.23401 1.188.234"/><path d="m227.34915 362.82197h4.446v1.359h-4.446z"/><path d="m237.50143 368.89697v-13.257h1.602v5.364c.39-.41399.822-.74399 1.296-.99.474-.25199 1.02-.37799 1.638-.378.498.00001.936.084 1.314.252.384.16201.702.39601.954.702.258.30001.453.66301.585 1.089.132.42601.198.89701.198 1.413v5.805h-1.602v-5.805c0-.68999-.159-1.22399-.477-1.602-.312-.38399-.792-.57599-1.44-.576-.474.00001-.918.11401-1.332.342-.408.22801-.786.53701-1.134.927v6.714z"/><path d="m250.28397 369.04097c-.72001 0-1.27501-.201-1.665-.603-.38401-.40199-.57601-.98099-.576-1.737v-5.58h-1.098c-.096.00001-.177-.027-.243-.081-.066-.06-.099-.14999-.099-.27v-.639l1.494-.189.369-2.817c.012-.09.051-.16198.117-.216.066-.06.14999-.09.252-.09h.81v3.141h2.61v1.161h-2.61v5.472c-.00001.38401.093.66901.279.855.18599.18601.42599.27901.72.279.16799.00001.31199-.021.432-.063.12599-.048.23399-.099.324-.153.09-.054.16499-.10199.225-.144.066-.048.12299-.072.171-.072.084.00001.15899.051.225.153l.468.765c-.27601.258-.60901.462-.999.612-.39001.144-.79201.216-1.206.216"/><path d="m256.99881 369.04097c-.72 0-1.275-.201-1.665-.603-.384-.40199-.576-.98099-.576-1.737v-5.58h-1.098c-.096.00001-.177-.027-.243-.081-.066-.06-.099-.14999-.099-.27v-.639l1.494-.189.369-2.817c.012-.09.051-.16198.117-.216.066-.06.15-.09.252-.09h.81v3.141h2.61v1.161h-2.61v5.472c0 .38401.093.66901.279.855.186.18601.426.27901.72.279.16799.00001.31199-.021.432-.063.12599-.048.23399-.099.324-.153.09-.054.16499-.10199.225-.144.066-.048.12299-.072.171-.072.084.00001.15899.051.225.153l.468.765c-.27601.258-.60901.462-.999.612-.39001.144-.79201.216-1.206.216"/><path d="m260.95065 371.98397v-12.204h.954c.228.00001.372.11101.432.333l.135 1.08c.39-.47399.834-.85499 1.332-1.143.504-.28799 1.083-.43199 1.737-.432.522.00001.996.10201 1.422.306.426.19801.78899.49501 1.089.891.29999.39001.53099.87601.693 1.458.16199.58201.24299 1.25101.243 2.007-.00001.67201-.09 1.29901-.27 1.881-.18001.57601-.43801 1.07701-.774 1.503-.336.42001-.75.753-1.242.999-.486.24-1.035.36-1.647.36-.564 0-1.047-.093-1.449-.279-.396-.186-.747-.45-1.053-.792v4.032zm4.059-11.07c-.522.00001-.981.12001-1.377.36-.39.24001-.75.57901-1.08 1.017v4.41c.294.39601.615.67501.963.837.354.16201.747.24301 1.179.243.846.00001 1.497-.30299 1.953-.909.456-.60599.684-1.46999.684-2.592 0-.59399-.054-1.10399-.162-1.53-.102-.42599-.252-.77399-.45-1.044-.198-.27599-.441-.47699-.729-.603-.288-.12599-.615-.18899-.981-.189"/><path d="m276.11987 361.28297c-.072.13201-.183.19801-.333.198-.09.00001-.192-.033-.306-.099s-.255-.13799-.423-.216c-.162-.084-.357-.15899-.585-.225-.228-.072-.498-.10799-.81-.108-.27.00001-.513.036-.729.108-.216.066-.402.15901-.558.279-.15.12001-.267.26101-.351.423-.078.15601-.117.32701-.117.513 0 .23401.066.42901.198.585.138.15601.318.29101.54.405.222.11401.474.21601.756.306.282.084.57.17701.864.279.3.096.591.20401.873.324.282.12001.534.27001.756.45.222.18001.399.40201.531.666.13799.25801.20699.57001.207.936-.00001.42001-.075.81001-.225 1.17-.15.35401-.372.66301-.666.927-.294.258-.654.462-1.08.612s-.918.225-1.476.225c-.636 0-1.212-.102-1.728-.306-.516-.21-.954-.477-1.314-.801l.378-.612c.048-.078.105-.13799.171-.18.066-.042.153-.063.261-.063.108.00001.222.042.342.126s.264.17701.432.279c.174.10201.381.19501.621.279.246.084.552.12601.918.126.312.00001.585-.039.819-.117.234-.084.429-.19499.585-.333.156-.13799.27-.29699.342-.477.078-.17999.117-.37199.117-.576 0-.25199-.069-.45899-.207-.621-.132-.16799-.309-.30899-.531-.423-.222-.11999-.477-.22199-.765-.306-.282-.09-.573-.18299-.873-.279-.294-.096-.585-.20399-.873-.324-.282-.12599-.534-.28199-.756-.468-.222-.18599-.402-.41399-.54-.684-.132-.27599-.198-.60899-.198-.999 0-.34799.072-.68099.216-.999.144-.32399.354-.60599.63-.846.276-.24599.615-.44099 1.017-.585.402-.14399.861-.21599 1.377-.216.6.00001 1.137.096 1.611.288.48.18601.894.44401 1.242.774z"/><path d="m278.54256 367.90697c0-.15599.027-.30299.081-.441.06-.13799.138-.25799.234-.36.102-.10199.222-.18299.36-.243.138-.06.285-.09.441-.09.156.00001.303.03.441.09s.258.14101.36.243c.102.10201.18.22201.234.36.06.13801.09.28501.09.441 0 .16201-.03.312-.09.45-.054.132-.132.249-.234.351s-.222.18-.36.234c-.138.06-.285.09-.441.09s-.303-.03-.441-.09c-.138-.054-.258-.132-.36-.234-.096-.102-.174-.219-.234-.351-.054-.138-.081-.28799-.081-.45m0-6.75c0-.15599.027-.30299.081-.441.06-.13799.138-.25799.234-.36.102-.10199.222-.18299.36-.243.138-.06.285-.09.441-.09.156.00001.303.03.441.09s.258.14101.36.243c.102.10201.18.22201.234.36.06.13801.09.28501.09.441 0 .16201-.03.31201-.09.45-.054.13201-.132.24901-.234.351-.102.10201-.222.18301-.36.243-.138.054-.285.081-.441.081-.156.00001-.303-.027-.441-.081-.138-.06-.258-.14099-.36-.243-.096-.10199-.174-.21899-.234-.351-.054-.13799-.081-.28799-.081-.45"/><path d="m283.37472 369.08597c-.084.21-.21001.366-.378.468-.16201.102-.33001.153-.504.153h-.675l5.409-13.473c.078-.19198.18899-.33898.333-.441.14399-.10198.31499-.15298.513-.153h.675z"/><path d="m288.87667 369.08597c-.084.21-.21.366-.378.468-.162.102-.33.153-.504.153h-.675l5.409-13.473c.078-.19198.18899-.33898.333-.441.14399-.10198.31499-.15298.513-.153h.675z"/><path d="m294.28609 359.77997h1.26c.132.00001.24.033.324.099s.141.14401.171.234l1.746 5.868c.048.21601.093.42601.135.63.042.19801.078.39901.108.603.048-.20399.102-.40499.162-.603.06-.20399.123-.41399.189-.63l1.926-5.904c.03-.09.081-.16499.153-.225.078-.06.17399-.09.288-.09h.693c.11999.00001.21899.03.297.09.078.06.13199.13501.162.225l1.881 5.904c.066.21001.12299.41701.171.621.054.20401.10499.40501.153.603.03-.19799.069-.40499.117-.621.048-.21599.099-.41699.153-.603l1.782-5.868c.03-.096.087-.17399.171-.234.084-.066.18299-.099.297-.099h1.206l-2.952 9.117h-1.269c-.15601 0-.26401-.102-.324-.306l-2.016-6.183c-.048-.13799-.087-.27599-.117-.414-.03-.14399-.06-.28499-.09-.423-.03.13801-.06.27901-.09.423-.03.14401-.069.28501-.117.423l-2.043 6.174c-.066.204-.189.306-.369.306h-1.206z"/><path d="m308.06734 359.77997h1.26c.132.00001.24.033.324.099s.141.14401.171.234l1.746 5.868c.048.21601.093.42601.135.63.042.19801.078.39901.108.603.048-.20399.102-.40499.162-.603.06-.20399.123-.41399.189-.63l1.926-5.904c.03-.09.081-.16499.153-.225.078-.06.17399-.09.288-.09h.693c.11999.00001.21899.03.297.09.078.06.13199.13501.162.225l1.881 5.904c.066.21001.12299.41701.171.621.054.20401.10499.40501.153.603.03-.19799.069-.40499.117-.621.048-.21599.099-.41699.153-.603l1.782-5.868c.03-.096.087-.17399.171-.234.084-.066.18299-.099.297-.099h1.206l-2.952 9.117h-1.269c-.15601 0-.26401-.102-.324-.306l-2.016-6.183c-.048-.13799-.087-.27599-.117-.414-.03-.14399-.06-.28499-.09-.423-.03.13801-.06.27901-.09.423-.03.14401-.069.28501-.117.423l-2.043 6.174c-.066.204-.189.306-.369.306h-1.206z"/><path d="m321.84859 359.77997h1.26c.132.00001.24.033.324.099s.141.14401.171.234l1.746 5.868c.048.21601.093.42601.135.63.042.19801.078.39901.108.603.048-.20399.102-.40499.162-.603.06-.20399.123-.41399.189-.63l1.926-5.904c.03-.09.081-.16499.153-.225.078-.06.17399-.09.288-.09h.693c.11999.00001.21899.03.297.09.078.06.13199.13501.162.225l1.881 5.904c.066.21001.12299.41701.171.621.054.20401.10499.40501.153.603.03-.19799.069-.40499.117-.621.048-.21599.099-.41699.153-.603l1.782-5.868c.03-.096.087-.17399.171-.234.084-.066.18299-.099.297-.099h1.206l-2.952 9.117h-1.269c-.15601 0-.26401-.102-.324-.306l-2.016-6.183c-.048-.13799-.087-.27599-.117-.414-.03-.14399-.06-.28499-.09-.423-.03.13801-.06.27901-.09.423-.03.14401-.069.28501-.117.423l-2.043 6.174c-.066.204-.189.306-.369.306h-1.206z"/><path d="m335.73334 367.90697c0-.15599.027-.30299.081-.441.06-.13799.138-.25799.234-.36.102-.10199.222-.18299.36-.243.138-.06.285-.09.441-.09.156.00001.303.03.441.09s.258.14101.36.243c.102.10201.18.22201.234.36.06.13801.09.28501.09.441 0 .16201-.03.312-.09.45-.054.132-.132.249-.234.351s-.222.18-.36.234c-.138.06-.285.09-.441.09s-.303-.03-.441-.09c-.138-.054-.258-.132-.36-.234-.096-.102-.174-.219-.234-.351-.054-.138-.081-.28799-.081-.45"/><path d="m343.15637 359.62697c.396.00001.765.045 1.107.135.348.084.663.21001.945.378h2.475v.594c-.00001.19801-.12601.32401-.378.378l-1.035.144c.20399.39001.30599.82501.306 1.305-.00001.44401-.087.84901-.261 1.215-.16801.36001-.40501.66901-.711.927-.3.25801-.66.45601-1.08.594-.414.13801-.87.20701-1.368.207-.426.00001-.828-.051-1.206-.153-.192.12001-.339.24901-.441.387-.096.13801-.144.27301-.144.405 0 .21601.087.38101.261.495.174.10801.405.18601.693.234.288.048.615.078.981.09s.738.033 1.116.063c.384.024.759.069 1.125.135.36599.066.69299.17401.981.324.28799.15001.51899.35701.693.621.17399.264.26099.606.261 1.026-.00001.39-.099.768-.297 1.134-.19201.366-.47101.69-.837.972-.36601.288-.813.516-1.341.684-.528.174-1.125.261-1.791.261s-1.251-.066-1.755-.198c-.498-.132-.912-.309-1.242-.531s-.579-.48-.747-.774c-.162-.288-.243-.591-.243-.909 0-.45.141-.831.423-1.143.288-.318.681-.56999 1.179-.756-.258-.11999-.465-.27899-.621-.477-.15-.20399-.225-.47399-.225-.81 0-.13199.024-.26699.072-.405.048-.14399.12-.28499.216-.423.102-.13799.225-.26999.369-.396.144-.12599.312-.23699.504-.333-.45-.25199-.804-.58499-1.062-.999-.252-.41999-.378-.90899-.378-1.467 0-.44399.084-.84599.252-1.206.174-.36599.414-.67499.72-.927.306-.25799.669-.45599 1.089-.594.426-.13799.891-.20699 1.395-.207m2.844 9.765c-.00001-.228-.063-.411-.189-.549-.12601-.138-.297-.243-.513-.315-.216-.078-.465-.135-.747-.171s-.579-.06-.891-.072c-.312-.018-.63-.036-.954-.054s-.633-.051-.927-.099c-.342.162-.621.36-.837.594-.21.234-.315.513-.315.837 0 .204.051.393.153.567.108.18.27.333.486.459.216.132.486.234.81.306.33.078.717.117 1.161.117.432 0 .819-.039 1.161-.117s.63-.189.864-.333c.24-.144.42299-.315.549-.513.12599-.198.18899-.417.189-.657m-2.844-4.95c.324.00001.609-.045.855-.135.252-.09.462-.21599.63-.378.168-.16199.294-.35399.378-.576.084-.22799.126-.47699.126-.747 0-.55799-.171-1.00199-.513-1.332-.336-.32999-.828-.49499-1.476-.495-.642.00001-1.134.16501-1.476.495-.336.33001-.504.77401-.504 1.332 0 .27001.042.51901.126.747.09.22201.219.41401.387.576.168.16201.375.28801.621.378.246.09.528.13501.846.135"/><path d="m352.98831 359.63597c.66599.00001 1.26599.11101 1.8.333.53999.22201.99599.53701 1.368.945.37799.40801.66599.90301.864 1.485.20399.57601.30599 1.22101.306 1.935-.00001.72001-.10201 1.36801-.306 1.944-.19801.57601-.48601 1.06801-.864 1.476-.37201.408-.82801.723-1.368.945-.53401.216-1.13401.324-1.8.324-.666 0-1.269-.108-1.809-.324-.534-.222-.99-.537-1.368-.945-.378-.40799-.669-.89999-.873-1.476-.204-.57599-.306-1.22399-.306-1.944 0-.71399.102-1.35899.306-1.935.204-.58199.495-1.07699.873-1.485.378-.40799.834-.72299 1.368-.945.54-.22199 1.143-.33299 1.809-.333m0 8.136c.89999.00001 1.57199-.29999 2.016-.9.44399-.60599.66599-1.44899.666-2.529-.00001-1.08599-.22201-1.93199-.666-2.538-.44401-.60599-1.11601-.90899-2.016-.909-.45601.00001-.852.078-1.188.234-.336.15601-.618.38101-.846.675-.222.29401-.39.65701-.504 1.089-.108.42601-.162.90901-.162 1.449 0 .54001.054 1.02301.162 1.449.114.42601.282.78601.504 1.08.228.28801.51.51001.846.666.336.15601.73199.23401 1.188.234"/><path d="m363.00784 359.63597c.66599.00001 1.26599.11101 1.8.333.53999.22201.99599.53701 1.368.945.37799.40801.66599.90301.864 1.485.20399.57601.30599 1.22101.306 1.935-.00001.72001-.10201 1.36801-.306 1.944-.19801.57601-.48601 1.06801-.864 1.476-.37201.408-.82801.723-1.368.945-.53401.216-1.13401.324-1.8.324-.666 0-1.269-.108-1.809-.324-.534-.222-.99-.537-1.368-.945-.378-.40799-.669-.89999-.873-1.476-.204-.57599-.306-1.22399-.306-1.944 0-.71399.102-1.35899.306-1.935.204-.58199.495-1.07699.873-1.485.378-.40799.834-.72299 1.368-.945.54-.22199 1.143-.33299 1.809-.333m0 8.136c.89999.00001 1.57199-.29999 2.016-.9.44399-.60599.66599-1.44899.666-2.529-.00001-1.08599-.22201-1.93199-.666-2.538-.44401-.60599-1.11601-.90899-2.016-.909-.456.00001-.852.078-1.188.234-.336.15601-.618.38101-.846.675-.222.29401-.39.65701-.504 1.089-.108.42601-.162.90901-.162 1.449 0 .54001.054 1.02301.162 1.449.114.42601.282.78601.504 1.08.228.28801.51.51001.846.666.336.15601.732.23401 1.188.234"/><path d="m372.40637 359.62697c.396.00001.765.045 1.107.135.348.084.663.21001.945.378h2.475v.594c-.00001.19801-.12601.32401-.378.378l-1.035.144c.20399.39001.30599.82501.306 1.305-.00001.44401-.087.84901-.261 1.215-.16801.36001-.40501.66901-.711.927-.3.25801-.66.45601-1.08.594-.414.13801-.87.20701-1.368.207-.426.00001-.828-.051-1.206-.153-.192.12001-.339.24901-.441.387-.096.13801-.144.27301-.144.405 0 .21601.087.38101.261.495.174.10801.405.18601.693.234.288.048.615.078.981.09s.738.033 1.116.063c.384.024.759.069 1.125.135.36599.066.69299.17401.981.324.28799.15001.51899.35701.693.621.17399.264.26099.606.261 1.026-.00001.39-.099.768-.297 1.134-.19201.366-.47101.69-.837.972-.36601.288-.813.516-1.341.684-.528.174-1.125.261-1.791.261s-1.251-.066-1.755-.198c-.498-.132-.912-.309-1.242-.531s-.579-.48-.747-.774c-.162-.288-.243-.591-.243-.909 0-.45.141-.831.423-1.143.288-.318.681-.56999 1.179-.756-.258-.11999-.465-.27899-.621-.477-.15-.20399-.225-.47399-.225-.81 0-.13199.024-.26699.072-.405.048-.14399.12-.28499.216-.423.102-.13799.225-.26999.369-.396.144-.12599.312-.23699.504-.333-.45-.25199-.804-.58499-1.062-.999-.252-.41999-.378-.90899-.378-1.467 0-.44399.084-.84599.252-1.206.174-.36599.414-.67499.72-.927.306-.25799.669-.45599 1.089-.594.426-.13799.891-.20699 1.395-.207m2.844 9.765c-.00001-.228-.063-.411-.189-.549-.12601-.138-.297-.243-.513-.315-.216-.078-.465-.135-.747-.171s-.579-.06-.891-.072c-.312-.018-.63-.036-.954-.054s-.633-.051-.927-.099c-.342.162-.621.36-.837.594-.21.234-.315.513-.315.837 0 .204.051.393.153.567.108.18.27.333.486.459.216.132.486.234.81.306.33.078.717.117 1.161.117.432 0 .819-.039 1.161-.117s.63-.189.864-.333c.24-.144.42299-.315.549-.513.12599-.198.18899-.417.189-.657m-2.844-4.95c.324.00001.609-.045.855-.135.252-.09.462-.21599.63-.378.168-.16199.294-.35399.378-.576.084-.22799.126-.47699.126-.747 0-.55799-.171-1.00199-.513-1.332-.336-.32999-.828-.49499-1.476-.495-.642.00001-1.134.16501-1.476.495-.336.33001-.504.77401-.504 1.332 0 .27001.042.51901.126.747.09.22201.219.41401.387.576.168.16201.375.28801.621.378.246.09.528.13501.846.135"/><path d="m380.33031 355.63997v13.257h-1.602v-13.257z"/><path d="m386.76278 359.63597c.54599.00001 1.04999.093 1.512.279.46199.18001.86099.44401 1.197.792.33599.34201.59699.76801.783 1.278.19199.50401.28799 1.08001.288 1.728-.00001.25201-.027.42001-.081.504-.054.084-.15601.12601-.306.126h-6.066c.012.57601.09 1.07701.234 1.503.144.42601.342.78301.594 1.071.25199.28201.55199.49501.9.639.34799.13801.73799.20701 1.17.207.40199.00001.74699-.045 1.035-.135.29399-.096.54599-.19799.756-.306.20999-.10799.38399-.20699.522-.297.14399-.096.26699-.14399.369-.144.13199.00001.23399.051.306.153l.45.585c-.19801.24001-.43501.45001-.711.63-.27601.174-.57301.318-.891.432-.31201.114-.63601.198-.972.252-.33601.06-.66901.09-.999.09-.63001 0-1.21201-.105-1.746-.315-.528-.216-.987-.528-1.377-.936-.384-.41399-.684-.92399-.9-1.53-.216-.60599-.324-1.30199-.324-2.088 0-.63599.096-1.22999.288-1.782.198-.55199.48-1.02899.846-1.431.366-.40799.813-.72599 1.341-.954.52799-.23399 1.12199-.35099 1.782-.351m.036 1.179c-.77401.00001-1.38301.22501-1.827.675-.444.44401-.72 1.06201-.828 1.854h4.959c-.00001-.37199-.051-.71099-.153-1.017-.10201-.31199-.25201-.57899-.45-.801-.19801-.22799-.44101-.40199-.729-.522-.28201-.12599-.60601-.18899-.972-.189"/><path d="m392.05365 367.90697c0-.15599.027-.30299.081-.441.06-.13799.138-.25799.234-.36.102-.10199.222-.18299.36-.243.138-.06.285-.09.441-.09.156.00001.303.03.441.09s.258.14101.36.243c.102.10201.18.22201.234.36.06.13801.09.28501.09.441 0 .16201-.03.312-.09.45-.054.132-.132.249-.234.351s-.222.18-.36.234c-.138.06-.285.09-.441.09s-.303-.03-.441-.09c-.138-.054-.258-.132-.36-.234-.096-.102-.174-.219-.234-.351-.054-.138-.081-.28799-.081-.45"/><path d="m402.62668 361.39997c-.048.066-.096.11701-.144.153-.048.036-.117.054-.207.054-.09.00001-.189-.036-.297-.108-.102-.078-.234-.16199-.396-.252-.162-.09-.36-.17099-.594-.243-.228-.078-.51-.11699-.846-.117-.444.00001-.837.081-1.179.243-.342.15601-.63.38401-.864.684-.228.30001-.402.66301-.522 1.089-.114.42601-.171.90301-.171 1.431 0 .55201.063 1.04401.189 1.476.126.42601.303.78601.531 1.08.228.28801.504.51001.828.666.33.15001.699.22501 1.107.225.39.00001.711-.045.963-.135.252-.096.462-.20099.63-.315.168-.11399.306-.21599.414-.306.108-.096.216-.14399.324-.144.138.00001.24.051.306.153l.45.585c-.396.48601-.891.843-1.485 1.071-.594.222-1.221.333-1.881.333-.57 0-1.101-.105-1.593-.315-.486-.21-.909-.513-1.269-.909-.36-.40199-.645-.89399-.855-1.476-.204-.58199-.306-1.24499-.306-1.989 0-.67799.093-1.30499.279-1.881.192-.57599.468-1.07099.828-1.485.366-.41999.816-.74699 1.35-.981.534-.23399 1.146-.35099 1.836-.351.636.00001 1.2.10501 1.692.315.492.20401.927.49501 1.305.873z"/><path d="m408.50003 359.63597c.66599.00001 1.26599.11101 1.8.333.53999.22201.99599.53701 1.368.945.37799.40801.66599.90301.864 1.485.20399.57601.30599 1.22101.306 1.935-.00001.72001-.10201 1.36801-.306 1.944-.19801.57601-.48601 1.06801-.864 1.476-.37201.408-.82801.723-1.368.945-.53401.216-1.13401.324-1.8.324-.66601 0-1.26901-.108-1.809-.324-.534-.222-.99-.537-1.368-.945-.378-.40799-.669-.89999-.873-1.476-.204-.57599-.306-1.22399-.306-1.944 0-.71399.102-1.35899.306-1.935.204-.58199.495-1.07699.873-1.485.378-.40799.834-.72299 1.368-.945.53999-.22199 1.14299-.33299 1.809-.333m0 8.136c.89999.00001 1.57199-.29999 2.016-.9.44399-.60599.66599-1.44899.666-2.529-.00001-1.08599-.22201-1.93199-.666-2.538-.44401-.60599-1.11601-.90899-2.016-.909-.45601.00001-.85201.078-1.188.234-.33601.15601-.61801.38101-.846.675-.222.29401-.39.65701-.504 1.089-.108.42601-.162.90901-.162 1.449 0 .54001.054 1.02301.162 1.449.114.42601.282.78601.504 1.08.22799.28801.50999.51001.846.666.33599.15601.73199.23401 1.188.234"/><path d="m414.82956 368.89697v-9.117h.954c.228.00001.372.11101.432.333l.117.936c.336-.41399.711-.75299 1.125-1.017.41999-.26399.90599-.39599 1.458-.396.61799.00001 1.11599.17101 1.494.513.38399.34201.65999.80401.828 1.386.12599-.32999.29099-.61499.495-.855.20999-.23999.44399-.43799.702-.594.25799-.15599.53099-.26999.819-.342.29399-.072.59099-.10799.891-.108.47999.00001.90599.078 1.278.234.37799.15001.69599.37201.954.666.26399.29401.46499.65701.603 1.089.13799.42601.20699.91501.207 1.467v5.805h-1.602v-5.805c-.00001-.71399-.15601-1.25399-.468-1.62-.31201-.37199-.76501-.55799-1.359-.558-.26401.00001-.51601.048-.756.144-.23401.09-.44101.22501-.621.405-.18001.18001-.32401.40801-.432.684-.10201.27001-.15301.58501-.153.945v5.805h-1.602v-5.805c-.00001-.73199-.14701-1.27799-.441-1.638-.29401-.35999-.72301-.53999-1.287-.54-.39601.00001-.765.10801-1.107.324-.336.21001-.645.49801-.927.864v6.795z"/><path d="m429.73018 369.08597c-.084.21-.21.366-.378.468-.162.102-.33.153-.504.153h-.675l5.409-13.473c.078-.19198.189-.33898.333-.441.144-.10198.315-.15298.513-.153h.675z"/><path d="m436.38878 368.89697v-7.749l-1.008-.117c-.126-.03-.231-.075-.315-.135-.078-.066-.117-.15899-.117-.279v-.657h1.44v-.882c0-.52199.072-.98398.216-1.386.15-.40798.36-.74998.63-1.026.276-.28198.60599-.49498.99-.639.38399-.14398.81599-.21598 1.296-.216.40799.00002.78599.06 1.13399.18l-.036.801c-.01.12002-.057.19202-.153.216-.096.024-.231.036-.405.036h-.27899c-.27601.00002-.52801.036-.756.108-.22201.072-.41401.18902-.576.351-.16201.16202-.28801.37502-.378.639-.084.26401-.12601.59101-.126.981v.837h2.63699v1.161h-2.58299v7.776z"/><path d="m445.80077 359.63597c.666.00001 1.266.11101 1.8.333.54.22201.996.53701 1.368.945.378.40801.666.90301.864 1.485.204.57601.306 1.22101.306 1.935 0 .72001-.102 1.36801-.306 1.944-.198.57601-.486 1.06801-.864 1.476-.372.408-.828.723-1.368.945-.534.216-1.134.324-1.8.324s-1.269-.108-1.809-.324c-.534-.222-.99-.537-1.368-.945-.378-.40799-.669-.89999-.873-1.476-.204-.57599-.306-1.22399-.306-1.944 0-.71399.102-1.35899.306-1.935.204-.58199.495-1.07699.873-1.485.378-.40799.834-.72299 1.368-.945.54-.22199 1.143-.33299 1.809-.333m0 8.136c.9.00001 1.572-.29999 2.016-.9.444-.60599.666-1.44899.666-2.529 0-1.08599-.222-1.93199-.666-2.538-.444-.60599-1.116-.90899-2.016-.909-.456.00001-.852.078-1.188.234-.336.15601-.618.38101-.846.675-.222.29401-.39.65701-.504 1.089-.108.42601-.162.90901-.162 1.449 0 .54001.054 1.02301.162 1.449.114.42601.282.78601.504 1.08.228.28801.51.51001.846.666.336.15601.732.23401 1.188.234"/><path d="m452.13037 368.89697v-9.117h.954c.228.00001.372.11101.432.333l.126.99c.396-.43799.837-.79199 1.323-1.062.492-.26999 1.059-.40499 1.701-.405.498.00001.936.084 1.314.252.384.16201.702.39601.954.702.258.30001.453.66301.585 1.089.132.42601.198.89701.198 1.413v5.805h-1.602v-5.805c0-.68999-.159-1.22399-.477-1.602-.312-.38399-.792-.57599-1.44-.576-.474.00001-.918.11401-1.332.342-.408.22801-.786.53701-1.134.927v6.714z"/><path d="m464.91287 369.04097c-.72 0-1.275-.201-1.665-.603-.384-.40199-.576-.98099-.576-1.737v-5.58h-1.098c-.096.00001-.177-.027-.243-.081-.066-.06-.099-.14999-.099-.27v-.639l1.494-.189.369-2.817c.012-.09.051-.16198.117-.216.066-.06.15-.09.252-.09h.81v3.141h2.61v1.161h-2.61v5.472c0 .38401.093.66901.279.855.186.18601.426.27901.72.279.168.00001.312-.021.432-.063.126-.048.234-.099.324-.153s.165-.10199.225-.144c.066-.048.123-.072.171-.072.084.00001.159.051.225.153l.468.765c-.276.258-.609.462-.999.612-.39.144-.792.216-1.206.216"/><path d="m474.08467 361.28297c-.072.13201-.183.19801-.333.198-.09.00001-.192-.033-.306-.099s-.255-.13799-.423-.216c-.162-.084-.357-.15899-.585-.225-.228-.072-.498-.10799-.81-.108-.27.00001-.513.036-.729.108-.216.066-.402.15901-.558.279-.15.12001-.267.26101-.351.423-.078.15601-.117.32701-.117.513 0 .23401.066.42901.198.585.138.15601.318.29101.54.405.222.11401.474.21601.756.306.282.084.57.17701.864.279.3.096.591.20401.873.324.282.12001.534.27001.756.45.222.18001.399.40201.531.666.138.25801.207.57001.207.936 0 .42001-.075.81001-.225 1.17-.15.35401-.372.66301-.666.927-.294.258-.654.462-1.08.612s-.918.225-1.476.225c-.636 0-1.212-.102-1.728-.306-.516-.21-.954-.477-1.314-.801l.378-.612c.048-.078.105-.13799.171-.18.066-.042.153-.063.261-.063.108.00001.222.042.342.126s.264.17701.432.279c.174.10201.381.19501.621.279.246.084.552.12601.918.126.312.00001.585-.039.819-.117.234-.084.429-.19499.585-.333.156-.13799.27-.29699.342-.477.078-.17999.117-.37199.117-.576 0-.25199-.069-.45899-.207-.621-.132-.16799-.309-.30899-.531-.423-.222-.11999-.477-.22199-.765-.306-.282-.09-.573-.18299-.873-.279-.294-.096-.585-.20399-.873-.324-.282-.12599-.534-.28199-.756-.468-.222-.18599-.402-.41399-.54-.684-.132-.27599-.198-.60899-.198-.999 0-.34799.072-.68099.216-.999.144-.32399.354-.60599.63-.846.276-.24599.615-.44099 1.017-.585.402-.14399.861-.21599 1.377-.216.6.00001 1.137.096 1.611.288.48.18601.894.44401 1.242.774z"/><path d="m476.80437 369.08597c-.084.21-.21.366-.378.468-.162.102-.33.153-.504.153h-.675l5.409-13.473c.078-.19198.189-.33898.333-.441.144-.10198.315-.15298.513-.153h.675z"/><path d="m487.67257 361.28297c-.072.13201-.183.19801-.333.198-.09.00001-.192-.033-.306-.099s-.255-.13799-.423-.216c-.162-.084-.357-.15899-.585-.225-.228-.072-.498-.10799-.81-.108-.27.00001-.513.036-.729.108-.216.066-.402.15901-.558.279-.15.12001-.267.26101-.351.423-.078.15601-.117.32701-.117.513 0 .23401.066.42901.198.585.138.15601.318.29101.54.405.222.11401.474.21601.756.306.282.084.57.17701.864.279.3.096.591.20401.873.324.282.12001.534.27001.756.45.222.18001.399.40201.531.666.138.25801.207.57001.207.936 0 .42001-.075.81001-.225 1.17-.15.35401-.372.66301-.666.927-.294.258-.654.462-1.08.612s-.918.225-1.476.225c-.636 0-1.212-.102-1.728-.306-.516-.21-.954-.477-1.314-.801l.378-.612c.048-.078.105-.13799.171-.18.066-.042.153-.063.261-.063.108.00001.222.042.342.126s.264.17701.432.279c.174.10201.381.19501.621.279.246.084.552.12601.918.126.312.00001.585-.039.819-.117.234-.084.429-.19499.585-.333.156-.13799.27-.29699.342-.477.078-.17999.117-.37199.117-.576 0-.25199-.069-.45899-.207-.621-.132-.16799-.309-.30899-.531-.423-.222-.11999-.477-.22199-.765-.306-.282-.09-.573-.18299-.873-.279-.294-.096-.585-.20399-.873-.324-.282-.12599-.534-.28199-.756-.468-.222-.18599-.402-.41399-.54-.684-.132-.27599-.198-.60899-.198-.999 0-.34799.072-.68099.216-.999.144-.32399.354-.60599.63-.846.276-.24599.615-.44099 1.017-.585.402-.14399.861-.21599 1.377-.216.6.00001 1.137.096 1.611.288.48.18601.894.44401 1.242.774z"/><path d="m490.27487 371.98397v-12.204h.954c.228.00001.372.11101.432.333l.135 1.08c.39-.47399.834-.85499 1.332-1.143.504-.28799 1.083-.43199 1.737-.432.522.00001.996.10201 1.422.306.426.19801.789.49501 1.089.891.3.39001.531.87601.693 1.458.162.58201.243 1.25101.243 2.007 0 .67201-.09 1.29901-.27 1.881-.18.57601-.438 1.07701-.774 1.503-.336.42001-.75.753-1.242.999-.486.24-1.035.36-1.647.36-.564 0-1.047-.093-1.449-.279-.396-.186-.747-.45-1.053-.792v4.032zm4.059-11.07c-.522.00001-.981.12001-1.377.36-.39.24001-.75.57901-1.08 1.017v4.41c.294.39601.615.67501.963.837.354.16201.747.24301 1.179.243.846.00001 1.497-.30299 1.953-.909.456-.60599.684-1.46999.684-2.592 0-.59399-.054-1.10399-.162-1.53-.102-.42599-.252-.77399-.45-1.044-.198-.27599-.441-.47699-.729-.603-.288-.12599-.615-.18899-.981-.189"/><path d="m503.83307 359.63597c.546.00001 1.05.093 1.512.279.462.18001.861.44401 1.197.792.336.34201.597.76801.783 1.278.192.50401.288 1.08001.288 1.728 0 .25201-.027.42001-.081.504-.054.084-.156.12601-.306.126h-6.066c.012.57601.09 1.07701.234 1.503.144.42601.342.78301.594 1.071.252.28201.552.49501.9.639.348.13801.738.20701 1.17.207.402.00001.747-.045 1.035-.135.294-.096.546-.19799.756-.306.21-.10799.384-.20699.522-.297.144-.096.267-.14399.369-.144.132.00001.234.051.306.153l.45.585c-.198.24001-.435.45001-.711.63-.276.174-.573.318-.891.432-.312.114-.636.198-.972.252-.336.06-.669.09-.999.09-.63 0-1.212-.105-1.746-.315-.528-.216-.987-.528-1.377-.936-.384-.41399-.684-.92399-.9-1.53-.216-.60599-.324-1.30199-.324-2.088 0-.63599.096-1.22999.288-1.782.198-.55199.48-1.02899.846-1.431.366-.40799.813-.72599 1.341-.954.528-.23399 1.122-.35099 1.782-.351m.036 1.179c-.774.00001-1.383.22501-1.827.675-.444.44401-.72 1.06201-.828 1.854h4.959c0-.37199-.051-.71099-.153-1.017-.102-.31199-.252-.57899-.45-.801-.198-.22799-.441-.40199-.729-.522-.282-.12599-.606-.18899-.972-.189"/><path d="m515.86497 361.39997c-.048.066-.096.11701-.144.153-.048.036-.117.054-.207.054-.09.00001-.189-.036-.297-.108-.102-.078-.234-.16199-.396-.252-.162-.09-.36-.17099-.594-.243-.228-.078-.51-.11699-.846-.117-.444.00001-.837.081-1.179.243-.342.15601-.63.38401-.864.684-.228.30001-.402.66301-.522 1.089-.114.42601-.171.90301-.171 1.431 0 .55201.063 1.04401.189 1.476.126.42601.303.78601.531 1.08.228.28801.504.51001.828.666.33.15001.699.22501 1.107.225.39.00001.711-.045.963-.135.252-.096.462-.20099.63-.315.168-.11399.306-.21599.414-.306.108-.096.216-.14399.324-.144.138.00001.24.051.306.153l.45.585c-.396.48601-.891.843-1.485 1.071-.594.222-1.221.333-1.881.333-.57 0-1.101-.105-1.593-.315-.486-.21-.909-.513-1.269-.909-.36-.40199-.645-.89399-.855-1.476-.204-.58199-.306-1.24499-.306-1.989 0-.67799.093-1.30499.279-1.881.192-.57599.468-1.07099.828-1.485.366-.41999.816-.74699 1.35-.981.534-.23399 1.146-.35099 1.836-.351.636.00001 1.2.10501 1.692.315.492.20401.927.49501 1.305.873z"/><path d="m519.83027 359.77997v9.117h-1.602v-9.117zm.36-2.862c0 .15602-.033.30302-.099.441-.06.13202-.144.25202-.252.36-.102.10202-.222.18302-.36.243-.138.06-.285.09-.441.09-.156.00002-.303-.03-.441-.09-.132-.06-.252-.14098-.36-.243-.102-.10798-.183-.22798-.243-.36-.06-.13798-.09-.28498-.09-.441 0-.15598.03-.30298.09-.441.06-.14398.141-.26698.243-.369.108-.10798.228-.19198.36-.252.138-.06.285-.09.441-.09.156.00002.303.03.441.09s.258.14402.36.252c.108.10202.192.22502.252.369.066.13802.099.28502.099.441"/><path d="m522.65377 368.89697v-9.117h.954c.228.00001.372.11101.432.333l.117.936c.336-.41399.711-.75299 1.125-1.017.42-.26399.906-.39599 1.458-.396.618.00001 1.116.17101 1.494.513.384.34201.66.80401.828 1.386.126-.32999.291-.61499.495-.855.21-.23999.444-.43799.702-.594.258-.15599.531-.26999.819-.342.294-.072.591-.10799.891-.108.48.00001.906.078 1.278.234.378.15001.696.37201.954.666.264.29401.465.65701.603 1.089.138.42601.207.91501.207 1.467v5.805h-1.602v-5.805c0-.71399-.156-1.25399-.468-1.62-.312-.37199-.765-.55799-1.359-.558-.264.00001-.516.048-.756.144-.234.09-.441.22501-.621.405-.18.18001-.324.40801-.432.684-.102.27001-.153.58501-.153.945v5.805h-1.602v-5.805c0-.73199-.147-1.27799-.441-1.638-.294-.35999-.723-.53999-1.287-.54-.396.00001-.765.10801-1.107.324-.336.21001-.645.49801-.927.864v6.795z"/><path d="m541.02837 359.63597c.546.00001 1.05.093 1.512.279.462.18001.861.44401 1.197.792.336.34201.597.76801.783 1.278.192.50401.288 1.08001.288 1.728 0 .25201-.027.42001-.081.504-.054.084-.156.12601-.306.126h-6.066c.012.57601.09 1.07701.234 1.503.144.42601.342.78301.594 1.071.252.28201.552.49501.9.639.348.13801.738.20701 1.17.207.402.00001.747-.045 1.035-.135.294-.096.546-.19799.756-.306.21-.10799.384-.20699.522-.297.144-.096.267-.14399.369-.144.132.00001.234.051.306.153l.45.585c-.198.24001-.435.45001-.711.63-.276.174-.573.318-.891.432-.312.114-.636.198-.972.252-.336.06-.669.09-.999.09-.63 0-1.212-.105-1.746-.315-.528-.216-.987-.528-1.377-.936-.384-.41399-.684-.92399-.9-1.53-.216-.60599-.324-1.30199-.324-2.088 0-.63599.096-1.22999.288-1.782.198-.55199.48-1.02899.846-1.431.366-.40799.813-.72599 1.341-.954.528-.23399 1.122-.35099 1.782-.351m.036 1.179c-.774.00001-1.383.22501-1.827.675-.444.44401-.72 1.06201-.828 1.854h4.959c0-.37199-.051-.71099-.153-1.017-.102-.31199-.252-.57899-.45-.801-.198-.22799-.441-.40199-.729-.522-.282-.12599-.606-.18899-.972-.189"/><path d="m546.84127 368.89697v-9.117h.954c.228.00001.372.11101.432.333l.126.99c.396-.43799.837-.79199 1.323-1.062.492-.26999 1.059-.40499 1.701-.405.498.00001.936.084 1.314.252.384.16201.702.39601.954.702.258.30001.453.66301.585 1.089.132.42601.198.89701.198 1.413v5.805h-1.602v-5.805c0-.68999-.159-1.22399-.477-1.602-.312-.38399-.792-.57599-1.44-.576-.474.00001-.918.11401-1.332.342-.408.22801-.786.53701-1.134.927v6.714z"/><path d="m556.99577 369.08597c-.084.21-.21.366-.378.468-.162.102-.33.153-.504.153h-.675l5.409-13.473c.078-.19198.189-.33898.333-.441.144-.10198.315-.15298.513-.153h.675z"/><path d="m565.57367 367.42997h5.58v1.467h-7.326v-12.897h1.746z"/><path d="m579.51777 368.89697h-.711c-.156 0-.282-.024-.378-.072s-.159-.15-.189-.306l-.18-.846c-.24.21601-.474.41101-.702.585-.228.168-.468.312-.72.432-.252.114-.522.201-.81.261-.282.06-.597.09-.945.09-.354 0-.687-.048-.999-.144-.306-.102-.573-.252-.801-.45s-.411-.44699-.549-.747c-.132-.30599-.198-.66599-.198-1.08 0-.35999.099-.70499.297-1.035.198-.33599.516-.63299.954-.891.444-.25799 1.023-.46799 1.737-.63.714-.16799 1.587-.26399 2.619-.288v-.711c0-.70799-.153-1.24199-.459-1.602-.3-.36599-.747-.54899-1.341-.549-.39.00001-.72.051-.99.153-.264.096-.495.20701-.693.333-.192.12001-.36.23101-.504.333-.138.096-.276.14401-.414.144-.108.00001-.204-.027-.288-.081-.078-.06-.141-.13199-.189-.216l-.288-.513c.504-.48599 1.047-.84899 1.629-1.089.582-.23999 1.227-.35999 1.935-.36.51.00001.963.084 1.359.252.396.16801.729.40201.999.702.27.30001.474.66301.612 1.089.138.42601.207.89401.207 1.404zm-4.158-.981c.282.00001.54-.027.774-.081.234-.06.453-.14099.657-.243.21-.10799.408-.23699.594-.387.192-.14999.378-.32099.558-.513v-1.899c-.738.024-1.365.084-1.881.18-.516.09-.936.21001-1.26.36-.324.15001-.561.32701-.711.531-.144.20401-.216.43201-.216.684 0 .24001.039.44701.117.621.078.17401.183.31801.315.432.132.10801.288.18901.468.243.18.048.375.072.585.072"/><path d="m584.72537 369.04097c-.72 0-1.275-.201-1.665-.603-.384-.40199-.576-.98099-.576-1.737v-5.58h-1.098c-.096.00001-.177-.027-.243-.081-.066-.06-.099-.14999-.099-.27v-.639l1.494-.189.369-2.817c.012-.09.051-.16198.117-.216.066-.06.15-.09.252-.09h.81v3.141h2.61v1.161h-2.61v5.472c0 .38401.093.66901.279.855.186.18601.426.27901.72.279.168.00001.312-.021.432-.063.126-.048.234-.099.324-.153s.165-.10199.225-.144c.066-.048.123-.072.171-.072.084.00001.159.051.225.153l.468.765c-.276.258-.609.462-.999.612-.39.144-.792.216-1.206.216"/><path d="m592.36717 359.63597c.666.00001 1.266.11101 1.8.333.54.22201.996.53701 1.368.945.378.40801.666.90301.864 1.485.204.57601.306 1.22101.306 1.935 0 .72001-.102 1.36801-.306 1.944-.198.57601-.486 1.06801-.864 1.476-.372.408-.828.723-1.368.945-.534.216-1.134.324-1.8.324s-1.269-.108-1.809-.324c-.534-.222-.99-.537-1.368-.945-.378-.40799-.669-.89999-.873-1.476-.204-.57599-.306-1.22399-.306-1.944 0-.71399.102-1.35899.306-1.935.204-.58199.495-1.07699.873-1.485.378-.40799.834-.72299 1.368-.945.54-.22199 1.143-.33299 1.809-.333m0 8.136c.9.00001 1.572-.29999 2.016-.9.444-.60599.666-1.44899.666-2.529 0-1.08599-.222-1.93199-.666-2.538-.444-.60599-1.116-.90899-2.016-.909-.456.00001-.852.078-1.188.234-.336.15601-.618.38101-.846.675-.222.29401-.39.65701-.504 1.089-.108.42601-.162.90901-.162 1.449 0 .54001.054 1.02301.162 1.449.114.42601.282.78601.504 1.08.228.28801.51.51001.846.666.336.15601.732.23401 1.188.234"/><g transform="matrix(.99888162 0 0 .99809723 -940.88687 -1564.02585)"><path d="m1116.8938 1689.4194c-5.9501-6.4533-9.8718-14.7504-11.0814-23.4444s.2983-17.7464 4.2608-25.5789 10.362-14.4102 18.0827-18.5864c7.7206-4.1761 16.7282-5.9321 25.4522-4.9618 14.0311 1.5606 27.0437 10.436 33.618 22.9295l79.0542 10.904h-90.1007c-5.6213-7.1952-14.1129-12.0817-23.1583-13.3266-6.4597-.889-13.1604.045-19.131 2.6661-5.9705 2.6213-11.1929 6.9222-14.9103 12.2794-3.7173 5.3573-5.9185 11.7546-6.2844 18.265s1.1045 13.1141 4.1982 18.8541" fill="#1a1a1a"/><g fill="#0192d3"><path d="m1128.0085 1719-121.00003-87c-5.79688 11.4486-8.0911 24.6415-6.49942 37.3749 1.59169 12.7335 7.06282 24.9557 15.49945 34.6251 11.0648 12.6815 27.2298 20.7807 44.0118 22.0513-7.9223-2.5599-15.1793-7.1499-20.8872-13.2109-5.7079-6.0609-9.8546-13.5801-11.935-21.6416-2.383-9.2343-2.0312-19.1565 1-28.1988z"/><path d="m1121.2919 1742.501-106.31654-29.9171c-.85695 9.9442 1.09424 20.1153 5.57014 29.0365 4.476 8.9212 11.4632 16.5656 19.9473 21.8232 12.5858 7.7995 28.4343 10.1316 42.7334 6.2881-14.3249.096-28.5169-7.0219-37.0072-18.5599-4.7934-6.514-7.8065-14.3248-8.6296-22.3704z"/><path d="m1169.7781 1675.729c-1.9753 4.1002-3.3486 8.4898-4.0625 12.9847-2.2142 13.9416 1.9287 28.0237 6.0575 41.5228 4.1289 13.499 8.3376 27.5466 6.255 41.5085-1.5555 10.428-6.6401 20.1889-13.7567 27.9681s-16.2003 13.6286-25.9621 17.6121c-16.0797 6.5616-34.1667 8.1034-51.125 4.3581v46.4118l13.9455-33.13c18.0735 4.1247 37.4229 2.4559 54.5233-4.7024 12.2473-5.1268 23.4211-13.1088 31.4777-23.6621 8.0567-10.5533 12.8628-23.7392 12.5223-37.0119-.4093-15.9555-7.944-30.7436-15.2368-44.9408-7.2927-14.1972-14.6821-29.0987-14.7632-45.0592-.01-1.2875.035-2.5753.125-3.8597"/></g></g><g fill="#0192d3" transform="matrix(1.0005173 0 0 .99948297 -567.819896 -445.48535)"><path d="m961.33407 697.36056v18.00931h-91.95244v-161.08331h21.98863v143.074z"/><path d="m1030.804 632.68111-53.20035-78.39455h21.70753c1.57462.00016 2.73682.2626 3.48672.78732.7498.52504 1.4246 1.27486 2.0245 2.24948l42.0654 64.56022c.5248-1.57454 1.3121-3.29915 2.3619-5.17381l39.7035-58.93651c.6747-1.0496 1.387-1.87441 2.137-2.47443.8247-.67469 1.7994-1.01211 2.9243-1.01227h20.8077l-53.4252 77.38228 55.2248 83.70103h-21.595c-1.6498 0-2.962-.32012-3.9366-1.14493-.8999-.89979-1.6498-1.87457-2.2495-2.92433l-43.1901-67.59702c-.525 1.57471-1.1998 3.07436-2.0246 4.49897l-42.0653 63.09805c-.6749 1.04976-1.4622 2.02454-2.36199 2.92433-.82484.82481-2.02456 1.14493-3.59918 1.14493h-20.24536z"/></g><g fill="#1a1a1a" transform="matrix(1.0005173 0 0 .99948297 -558.98853 -445.48535)"><path d="m1263.6359 634.93825c-.0001 7.40874-.7704 14.45061-2.3107 21.12568-1.4671 6.67518-3.6311 12.91018-6.4917 18.70503-2.8609 5.72157-6.3452 10.92963-10.4528 15.62419-4.1078 4.69462-8.7291 8.76571-13.8637 12.21329l40.4909 43.77946h-17.6048c-2.6408-.00003-4.9881-.3668-7.0419-1.1003-2.0539-.73356-3.9245-2.11496-5.6115-3.94875l-27.7274-30.1481c-4.1813 1.32035-8.5458 2.34729-13.0936 3.08082-4.4745.73354-9.1691 1.1003-14.0837 1.1003-11.5899 0-22.1527-1.94385-31.6885-5.83157-9.536-3.96105-17.7148-9.4992-24.5366-16.61446-6.8219-7.11522-12.1033-15.58748-15.8443-25.41683-3.741-9.90261-5.6115-20.75885-5.6115-32.56876 0-11.80975 1.8705-22.62931 5.6115-32.45872 3.741-9.90254 9.0224-18.41149 15.8443-25.52686 6.8218-7.18845 15.0006-12.76329 24.5366-16.7245 9.5358-3.9609 20.0986-5.94143 31.6885-5.94159 11.5897.00016 22.1524 1.98069 31.6885 5.94159 9.6091 3.96121 17.8247 9.53605 24.6466 16.7245 6.8217 7.11537 12.1031 15.62432 15.8443 25.52686 3.7408 9.82941 5.6114 20.64897 5.6115 32.45872m-21.8959 0c-.0002-9.68251-1.3205-18.37484-3.9611-26.07701-2.6408-7.70196-6.3818-14.19369-11.223-19.47523-4.8414-5.35464-10.7096-9.4624-17.6047-12.32331-6.8953-2.86063-14.5973-4.29102-23.1062-4.29116-8.4357.00014-16.1011 1.43053-22.9962 4.29116-6.8953 2.86091-12.8001 6.96867-17.7148 12.32331-4.8413 5.28154-8.5823 11.77327-11.2229 19.47523-2.6409 7.70217-3.9611 16.3945-3.9611 26.07701 0 9.68267 1.3202 18.37501 3.9611 26.07701 2.6406 7.62876 6.3816 14.1205 11.2229 19.47524 4.9147 5.28145 10.8195 9.35254 17.7148 12.21328 6.8951 2.78743 14.5605 4.18114 22.9962 4.18112 8.5089.00002 16.2109-1.39369 23.1062-4.18112 6.8951-2.86074 12.7633-6.93183 17.6047-12.21328 4.8412-5.35474 8.5822-11.84648 11.223-19.47524 2.6406-7.702 3.9609-16.39434 3.9611-26.07701"/><path d="m1323.0267 715.36987c-8.8986 0-15.7579-2.48418-20.5779-7.45256-4.746-4.96836-7.1189-12.1243-7.1189-21.46783v-68.96402h-13.7638c-1.1865.0001-2.1876-.3336-3.0033-1.00109-.8157-.74145-1.2236-1.85377-1.2236-3.33696v-7.8975l18.6581-2.33587 4.5605-33.83987c.1483-1.11218.6303-2.00203 1.446-2.66957.8157-.7414 1.8539-1.11218 3.1145-1.11233h10.2013v37.84423l31.9834.17543v14.17353h-31.9834v67.62923c0 4.74594.959 8.26829 3.2578 10.56707 2.2988 2.29882 5.265 3.44822 8.8986 3.4482 2.0763.00002 3.856-.25953 5.3392-.77862 1.5572-.59323 2.8919-1.22354 4.0043-1.89095 1.1123-.66738 2.0392-1.26062 2.7808-1.77972.8157-.59322 1.5201-.88984 2.1135-.88986 1.0381.00002 1.965.63034 2.7808 1.89095l5.784 9.45474c-3.4112 3.18867-7.5267 5.70993-12.3467 7.5638-4.8202 1.77972-9.7885 2.66957-14.9052 2.66957"/></g></svg>