<?xml version="1.0" encoding="UTF-8" standalone="no"?>
<svg
   viewBox="0 0 22 22"
   id="svg30"
   height="22"
   width="22"
   version="1.1"
   xmlns="http://www.w3.org/2000/svg"
   xmlns:svg="http://www.w3.org/2000/svg">
  <defs
     id="defs34" />
  <g
     id="Layer1001"
     transform="matrix(0.05061044,0,0,0.05061044,-4.2401131,-4.6829505)"
     style="fill:#f2f2f2">
    <path
       d="m 270.007,261.728 h -0.0206 c -13.4899,0 -24.476,-10.9707 -24.4905,-24.4515 -0.0198,-13.5258 10.9677,-24.5126 24.4698,-24.5271 13.5106,0 24.4943,10.9708 24.5111,24.4515 0,13.5258 -10.9676,24.5149 -24.4698,24.5294 v -7e-4 z"
       style="fill:#f2f2f2;fill-rule:evenodd"
       id="path17" />
    <path
       d="m 336.15,243.7705 c -12.5967,0 -22.8492,-10.2418 -22.8576,-22.8278 -0.0199,-12.6189 10.2319,-22.8775 22.837,-22.8882 12.6135,0 22.866,10.2395 22.8782,22.8256 0,12.6188 -10.2341,22.8774 -22.837,22.8904 h -0.0198 z"
       style="fill:#f2f2f2;fill-rule:evenodd"
       id="path19" />
    <path
       d="m 317.3352,178.5009 c 0.002,11.2694 -9.1377,20.4087 -20.4072,20.4087 -11.2695,0 -20.4095,-9.1393 -20.4095,-20.4087 0,-11.2695 9.14,-20.4095 20.4095,-20.4095 11.2695,0 20.4087,9.14 20.4087,20.4095 z"
       style="fill:#f2f2f2;fill-rule:evenodd"
       id="path21" />
    <path
       d="m 348.357,144.2141 c 8e-4,10.3686 -8.4072,18.7758 -18.7751,18.7758 -10.3686,0 -18.7758,-8.4072 -18.7758,-18.7758 0,-10.3679 8.4072,-18.7759 18.7758,-18.7759 10.3679,0 18.7759,8.408 18.7759,18.7759 z"
       style="fill:#f2f2f2;fill-rule:evenodd"
       id="path23" />
    <path
       d="m 305.9068,110.7433 c 0,9.0155 -7.3116,16.327 -16.327,16.327 -9.0147,0 -16.3262,-7.3115 -16.3262,-16.327 0,-9.0154 7.3115,-16.3269 16.3262,-16.3269 9.0154,0 16.327,7.3115 16.327,16.3269 z"
       style="fill:#f2f2f2;fill-rule:evenodd"
       id="path25" />
    <path
       d="m 201.7628,283.7902 c -21.127,27.3848 -38.2616,58.1851 -38.2616,95.4984 0,80.8784 61.3736,147.5799 137.4719,147.5799 76.0952,0 137.4718,-66.7008 137.4718,-147.5799 0,-37.321 -17.1613,-67.1424 -39.4833,-95.4984 -8.3698,-8.7831 -20.4538,-7.4773 -29.2515,-1.8567 -25.7412,13.3195 -39.6361,18.6414 -68.7378,18.5107 -28.1451,-0.1261 -42.9332,-4.7228 -68.6759,-18.7552 -8.7969,-5.3761 -22.1646,-6.6819 -30.5344,2.1012 z m 18.3449,22.7193 c 26.6818,14.753 50.4785,22.2379 80.8654,22.2379 30.4128,0 54.1698,-7.4849 80.8654,-22.2379 14.5672,20.5394 28.3032,46.0086 28.3032,72.7791 0,66.3126 -48.8739,119.2767 -109.1686,119.2767 -60.2978,0 -111.1904,-52.9641 -111.1904,-119.2767 0,-26.7353 15.7256,-52.2237 30.325,-72.7791 z"
       style="fill:#f2f2f2;fill-rule:evenodd"
       id="path27" />
  </g>
</svg>
