<svg version="1.1" viewBox="0 0 22 22" xmlns="http://www.w3.org/2000/svg">
 <g transform="matrix(.05 0 0 .05 -4 -5)" fill="#f2f2f2" fill-rule="evenodd">
  <path d="m270 262h-.02c-13 0-24-11-24-24-.02-14 11-25 24-25 14 0 24 11 25 24 0 14-11 25-24 25v-7e-4z"/>
  <path d="m336 244c-13 0-23-10-23-23-.02-13 10-23 23-23 13 0 23 10 23 23 0 13-10 23-23 23h-.02z"/>
  <path d="m317 179c.002 11-9 20-20 20s-20-9-20-20c0-11 9-20 20-20s20 9 20 20z"/>
  <path d="m348 144c8e-4 10-8 19-19 19-10 0-19-8-19-19 0-10 8-19 19-19 10 0 19 8 19 19z"/>
  <path d="m306 111c0 9-7 16-16 16-9 0-16-7-16-16 0-9 7-16 16-16 9 0 16 7 16 16z"/>
  <path d="m202 284c-21 27-38 58-38 95 0 81 61 148 137 148 76 0 137-67 137-148 0-37-17-67-39-95-8-9-20-7-29-2-26 13-40 19-69 19-28-.1-43-5-69-19-9-5-22-7-31 2zm18 23c27 15 50 22 81 22 30 0 54-7 81-22 15 21 28 46 28 73 0 66-49 119-109 119-60 0-111-53-111-119 0-27 16-52 30-73z"/>
 </g>
</svg>
