<?xml version="1.0" encoding="UTF-8" standalone="no"?>
<!-- Created with Inkscape (http://www.inkscape.org/) -->

<svg
   width="22"
   height="22"
   viewBox="0 0 5.8208332 5.8208336"
   version="1.1"
   id="svg8"
   inkscape:version="1.1 (c68e22c387, 2021-05-23)"
   sodipodi:docname="openmandriva-logo-22.svg"
   xmlns:inkscape="http://www.inkscape.org/namespaces/inkscape"
   xmlns:sodipodi="http://sodipodi.sourceforge.net/DTD/sodipodi-0.dtd"
   xmlns="http://www.w3.org/2000/svg"
   xmlns:svg="http://www.w3.org/2000/svg"
   xmlns:rdf="http://www.w3.org/1999/02/22-rdf-syntax-ns#"
   xmlns:cc="http://creativecommons.org/ns#"
   xmlns:dc="http://purl.org/dc/elements/1.1/">
  <defs
     id="defs2" />
  <sodipodi:namedview
     id="base"
     pagecolor="#ffffff"
     bordercolor="#666666"
     borderopacity="1.0"
     inkscape:pageopacity="0.0"
     inkscape:pageshadow="2"
     inkscape:zoom="11.15492"
     inkscape:cx="8.4715979"
     inkscape:cy="14.477916"
     inkscape:document-units="px"
     inkscape:current-layer="layer1"
     showgrid="false"
     units="px"
     fit-margin-top="0"
     fit-margin-left="0"
     fit-margin-right="0"
     fit-margin-bottom="0"
     inkscape:pagecheckerboard="0"
     inkscape:window-width="1276"
     inkscape:window-height="758"
     inkscape:window-x="0"
     inkscape:window-y="0"
     inkscape:window-maximized="1" />
  <metadata
     id="metadata5">
    <rdf:RDF>
      <cc:Work
         rdf:about="">
        <dc:format>image/svg+xml</dc:format>
        <dc:type
           rdf:resource="http://purl.org/dc/dcmitype/StillImage" />
        <dc:creator>
          <cc:Agent>
            <dc:title>ruru</dc:title>
          </cc:Agent>
        </dc:creator>
      </cc:Work>
    </rdf:RDF>
  </metadata>
  <g
     inkscape:label="Livello 1"
     inkscape:groupmode="layer"
     id="layer1"
     transform="translate(-56.682678,-179.43553)">
    <path
       id="path4156"
       style="fill:#ffffff;fill-opacity:1;stroke:none;stroke-width:0.0359774"
       d="m 59.634985,179.77659 c -1.438854,0 -2.605548,1.16669 -2.605548,2.60554 0,1.43887 1.166694,2.60506 2.605548,2.60506 1.104223,0 2.047712,-0.68707 2.426969,-1.65695 -0.37291,0.44774 -0.934179,0.73272 -1.562432,0.73272 -1.122768,0 -2.033005,-0.90975 -2.033005,-2.0325 0,-1.12278 0.910237,-2.03301 2.033005,-2.03301 0.07085,0 0.140933,0.004 0.209914,0.0104 -0.327627,-0.14853 -0.69131,-0.2313 -1.074451,-0.2313 z m 0.892523,0.55469 c -0.934248,0 -1.695354,0.76111 -1.695354,1.69536 0,0.93424 0.761106,1.69591 1.695354,1.69591 0.934248,0 1.695923,-0.76167 1.695923,-1.69591 0,-0.93425 -0.761675,-1.69536 -1.695923,-1.69536 z m 0,0.38244 c 0.727564,0 1.313487,0.58535 1.313487,1.31292 0,0.72755 -0.585923,1.31348 -1.313487,1.31348 -0.727563,0 -1.312917,-0.58593 -1.312917,-1.31348 0,-0.72757 0.585354,-1.31292 1.312917,-1.31292 z"
       inkscape:connector-curvature="0" />
  </g>
</svg>
