<?xml version="1.0" encoding="UTF-8" standalone="no"?>
<svg
   width="22"
   height="22"
   version="1.1"
   viewBox="0 0 22 22.000001"
   xml:space="preserve"
   id="svg53"
   sodipodi:docname="OpenSUSE_Logo.svg.2021_06_28_13_24_00.0.svg"
   inkscape:version="1.1 (c68e22c387, 2021-05-23)"
   xmlns:inkscape="http://www.inkscape.org/namespaces/inkscape"
   xmlns:sodipodi="http://sodipodi.sourceforge.net/DTD/sodipodi-0.dtd"
   xmlns="http://www.w3.org/2000/svg"
   xmlns:svg="http://www.w3.org/2000/svg"
   xmlns:rdf="http://www.w3.org/1999/02/22-rdf-syntax-ns#"
   xmlns:cc="http://creativecommons.org/ns#"
   xmlns:dc="http://purl.org/dc/elements/1.1/"><sodipodi:namedview
     id="namedview55"
     pagecolor="#ffffff"
     bordercolor="#666666"
     borderopacity="1.0"
     inkscape:pageshadow="2"
     inkscape:pageopacity="0.0"
     inkscape:pagecheckerboard="0"
     showgrid="false"
     showguides="true"
     inkscape:guide-bbox="true"
     inkscape:snap-global="false"
     inkscape:zoom="12.26706"
     inkscape:cx="-9.4969778"
     inkscape:cy="9.9045734"
     inkscape:window-width="1276"
     inkscape:window-height="758"
     inkscape:window-x="0"
     inkscape:window-y="0"
     inkscape:window-maximized="1"
     inkscape:current-layer="svg53" /><title
     id="title2">openSUSE logo</title><defs
     id="defs7"><clipPath
       id="vlpa"><path
         d="M 0,200.3 H 320 V 0 H 0 Z"
         id="path4" /></clipPath><clipPath
       clipPathUnits="userSpaceOnUse"
       id="clipPath81"><rect
         style="fill:#ececec;stroke:#f2f2f2;stroke-width:3.22016"
         id="rect83"
         width="104.90399"
         height="125.95223"
         x="-39.020287"
         y="-50.445507"
         transform="scale(1,-1)" /></clipPath><clipPath
       clipPathUnits="userSpaceOnUse"
       id="clipPath1171"><rect
         style="fill:#ffffff;stroke:none;stroke-width:19.5682"
         id="rect1173"
         width="88.571419"
         height="85.027817"
         x="223.48476"
         y="-197.41525"
         transform="scale(1,-1)" /></clipPath></defs><g
     transform="matrix(0.23314406,0,0,-0.23314406,-51.394236,46.907722)"
     id="g51"
     clip-path="url(#clipPath1171)"
     style="fill:#f9f9f9"><g
       clip-path="url(#vlpa)"
       id="g49"
       style="fill:#f9f9f9"><g
         transform="translate(262.7,162.7)"
         id="g11"
         style="fill:#f9f9f9"><path
           d="m 0,0 c 0.175,4.73 2.156,9.12 5.614,12.34 3.46,3.231 7.975,4.9 12.71,4.75 9.761,-0.349 17.43,-8.589 17.1,-18.34 C 35.24,-5.98 33.26,-10.37 29.81,-13.58 26.35,-16.83 21.846,-18.5 17.09,-18.34 7.341,-17.981 -0.32,-9.76 0.01,0 Z m 47.35,-17.44 c 0.805,0.532 1.396,0.972 1.645,1.07 l 0.269,0.419 c -0.681,4.28 -7.06,25.03 -11.88,30.02 -1.329,1.36 -2.394,2.7 -4.549,3.961 -17.46,10.17 -58.86,16.31 -60.8,16.59 l -0.33,-0.091 -0.124,-0.3 c 0,0 -0.16,-8.58 -0.184,-9.539 -4.229,1.421 -34.97,11.35 -63.79,12.35 -239.86746,-133.642057 -46.71484,-78.354709 58.67,-126.897 l 0.461,0.11 0.009,0.479 c -13.274883,22.388919 -16.864095,45.950935 12.86,42.63 4.28,-0.5 9.152,-1.06 14.2,-1.172 14.08,-0.089 29.25,2.511 38.6,6.601 6.049,2.63 9.909,4.38 12.33,6.579 0.87,0.721 1.32,1.891 1.791,3.15 l 0.329,0.831 c 0.391,1.021 0.967,3.171 1.219,4.35 0.102,0.519 0.162,1.068 -0.209,1.359 l -1.294,-0.24 c -4.106,-2.471 -14.37,-7.15 -23.96,-7.35 -11.91,-0.241 -35.9,11.98 -38.4,13.28 l -0.241,0.279 c -0.589,1.44 -4.19,9.949 -4.96,11.75 17.27,-11.38 31.59,-17.67 42.56,-18.64 12.21,-1.087 21.72,5.574 25.79,8.422 H 47.361 Z M 20.2,-1.64 c -3.031,0 -5.479,1.64 -5.479,3.65 0,2.029 2.448,3.66 5.479,3.66 3.031,0 5.486,-1.631 5.486,-3.66 C 25.684,0 23.229,-1.64 20.2,-1.64 M 18.179,11.87 C 14.868,11.989 11.729,10.819 9.329,8.569 6.93,6.319 5.515,3.271 5.415,-0.03 c -0.23,-6.821 5.111,-12.56 11.92,-12.81 3.309,-0.1 6.464,1.07 8.878,3.32 2.409,2.261 3.795,5.311 3.9,8.599 0.23,6.819 -5.109,12.55 -11.93,12.79 z"
           style="fill:#f9f9f9"
           id="path9"
           clip-path="url(#clipPath81)"
           sodipodi:nodetypes="cccccccccccccccccccccccccccccccccccccccsscccccccccc" /></g><g
         transform="translate(134,60.29)"
         id="g15"
         style="fill:#f9f9f9" /><g
         transform="translate(206.8,60.29)"
         id="g19"
         style="fill:#f9f9f9" /><g
         transform="translate(232.8,60.29)"
         id="g23"
         style="fill:#f9f9f9" /><g
         transform="translate(273.7,60.29)"
         id="g27"
         style="fill:#f9f9f9" /><g
         transform="translate(5.053,20.49)"
         id="g31"
         style="fill:#f9f9f9" /><g
         transform="translate(35.51,20.78)"
         id="g35"
         style="fill:#f9f9f9" /><g
         transform="translate(66.07,34.09)"
         id="g39"
         style="fill:#f9f9f9" /><g
         transform="translate(104.9,41.74)"
         id="g43"
         style="fill:#f9f9f9" /><g
         transform="translate(315.4,18.75)"
         id="g47"
         style="fill:#f9f9f9" /></g></g><metadata
     id="metadata919"><rdf:RDF><cc:Work
         rdf:about=""><dc:title>openSUSE logo</dc:title></cc:Work></rdf:RDF></metadata></svg>
