<svg id="a" width="22" height="22" version="1.1" xmlns="http://www.w3.org/2000/svg">
 <g transform="matrix(.2 0 0 .2 106 -27)" fill="#ececec">
  <path d="m-460 221c-2-.1-3-.3-5-.9-8-2-15-6-20-12-5-5-8-11-9-19-.5-3-.6-4-.6-7 .01-7 1-12 4-18 1-3 3-5 5-8 4-4 8-8 13-10 3-2 5-2 8-3 3-.7 4-.9 8-1 8-.2 13 .9 19 4 4 2 6 4 9 7 4 4 7 8 9 13 2 5 3 9 3 15 .003 4-.4 7-1 11-1 5-4 10-7 13-2 2-4 4-6 6-3 3-7 5-12 7-1 .6-5 2-7 2-3 .4-7 .6-10 .3zm7-11c5-1 10-4 14-8 3-3 5-7 6-11 1-4 .9-8-1-28-.3-3-.5-5-.6-5l-.09-.7-.5 4e-4c-1 .001-20 2-26 3-3 .4-4 .6-6 1-5 2-8 5-12 9-2 2-4 7-4 10-.3 2-.3 8 .009 10 .3 2 1 4 2 6 .6 1 2 4 3 5 .7 1 3 4 5 5 3 2 6 4 9 5 3 .7 4 .8 7 .7 3-.04 3-.08 5-.4z" opacity=".7"/>
  <path d="m-461 206c-3-.4-6-2-9-3-.9-.6-1-.7-1-1-2e-4-.3.09-.4 2-1 2-.9 4-2 7-4 3-2 6-4 9-8 5-5 9-10 13-16 .8-1 1-2 1-2 .4-.04.4-.006.5.4.1.7.8 7 1 10 .5 6-.03 9-2 13-1 2-2 4-4 5-2 2-4 3-5 4-2 .9-4 2-6 2-2 .3-5 .4-6 .1z" opacity=".7"/>
  <path d="m-475 197c-.6-.8-2-4-2-5-2-4-2-8-.7-12 .4-1 1-4 2-5 2-3 5-7 8-8 4-2 5-2 14-3 5-.5 12-1 13-1 .3-2e-4.4.06.4.2 4e-4.5-2 5-4 8-4 7-10 14-17 19-4 3-8 6-12 7-1 .5-2 .5-2-.04z" opacity=".7"/>
  <path d="m-460 229c-3-.3-6-.9-8-1-6-2-12-5-16-8-2-2-7-6-8-8-5-7-9-15-10-23-.3-3-.4-8-.2-10 .8-9 5-18 10-25 2-2 6-6 8-8 3-3 9-6 13-7 2-.7 6-2 8-2 .9-.2 3-.2 7-.2 5-2e-4 6 .03 8 .4 6 1 11 3 17 6 6 3 12 9 15 15 2 4 4 8 5 12 1 5 2 8 2 15-.08 4-.1 5-.6 7-1 5-3 11-6 15-6 9-15 16-25 20-5 2-10 2-15 2-2-.01-4-.05-4-.09zm9-3c5-.5 11-2 15-4 5-2 8-5 11-8 6-6 10-13 12-22 .7-3 .9-6 .8-11-.1-5-.2-6-1-10-1-4-3-7-5-11-6-9-15-17-26-20-3-.9-5-1-8-1-8-.5-15 .8-22 4-1 .7-3 2-4 2-7 4-12 10-15 17-7 14-6 31 3 44 3 4 7 9 11 12 2 2 7 4 11 6 3 1 8 2 11 2 2 .1 6 .1 8-.07z" opacity=".7"/>
 </g>
</svg>
