<?xml version="1.0" encoding="UTF-8" standalone="no"?>
<svg
   width="22"
   height="22"
   viewBox="11.811 12.73 2.4260632 2.4256458"
   version="1.1"
   id="svg14"
   xmlns="http://www.w3.org/2000/svg"
   xmlns:svg="http://www.w3.org/2000/svg">
  <defs
     id="defs18" />
  <g
     id="g44"
     transform="matrix(0.00800989,0,0,0.00800989,11.805443,12.727707)"
     style="fill:#f9f9f9">
    <ellipse
       cx="40.158001"
       cy="150.022"
       rx="28.347"
       ry="26.52"
       fill="#ff6309"
       id="ellipse2"
       style="fill:#f9f9f9" />
    <ellipse
       cx="238.479"
       cy="260.74701"
       rx="28.347"
       ry="26.521"
       fill="#ffb515"
       id="ellipse4"
       style="fill:#f9f9f9" />
    <path
       d="m 172.369,83.824 c 34.439,0 63.014,24.735 67.745,56.803 H 287.5 C 285.348,115.429 274.547,91.943 256.49,73.42 244.925,79.117 230.705,79.226 218.625,72.482 206.536,65.73 199.521,53.755 198.849,41.206 A 120.229,120.229 0 0 0 172.37,38.268 c -17.29,0 -33.998,3.651 -49.195,10.573 l 23.723,39.745 a 70.087,70.087 0 0 1 25.471,-4.762 z"
       fill="#ff6309"
       id="path6"
       style="fill:#f9f9f9" />
    <path
       d="m 240.117,159.387 c -4.72,32.08 -33.299,56.83 -67.748,56.83 -9.002,0 -17.602,-1.694 -25.48,-4.768 l -23.727,39.748 c 15.193,6.926 31.908,10.579 49.205,10.579 9.035,0 17.914,-1.009 26.5,-2.944 0.66,-12.563 7.678,-24.559 19.775,-31.314 12.084,-6.75 26.31,-6.641 37.877,-0.932 18.043,-18.525 28.832,-42.01 30.978,-67.199 z"
       fill="#c90016"
       id="path8"
       style="fill:#f9f9f9" />
    <path
       d="m 103.934,150.021 c 0,-21.09 10.249,-39.906 26.179,-52.036 L 106.396,58.246 A 116.407,116.407 0 0 0 90.669,70.998 C 76.943,84.274 67.1,100.305 61.683,117.8 c 10.913,6.838 18.139,18.707 18.139,32.221 0,13.512 -7.227,25.384 -18.14,32.219 5.417,17.496 15.26,33.525 28.986,46.803 a 116.433,116.433 0 0 0 15.714,12.748 l 23.721,-39.742 C 114.177,189.92 103.934,171.104 103.934,150.021 Z"
       fill="#ffb515"
       id="path10"
       style="fill:#f9f9f9" />
    <ellipse
       cx="238.45599"
       cy="39.251999"
       rx="28.346001"
       ry="26.521999"
       fill="#c90016"
       id="ellipse12"
       style="fill:#f9f9f9" />
  </g>
</svg>
